<svg xmlns="http://www.w3.org/2000/svg" xmlns:xlink="http://www.w3.org/1999/xlink" width="500" zoomAndPan="magnify" viewBox="0 0 375 374.999991" height="500" preserveAspectRatio="xMidYMid meet" version="1.0"><defs><clipPath id="83ac5495b6"><path d="M 347 298 L 352 298 L 352 313.984375 L 347 313.984375 Z M 347 298 " clip-rule="nonzero"/></clipPath><clipPath id="24571a297e"><path d="M 312 298 L 323 298 L 323 313.984375 L 312 313.984375 Z M 312 298 " clip-rule="nonzero"/></clipPath><clipPath id="de2f2a61d4"><path d="M 286 298 L 302 298 L 302 313.984375 L 286 313.984375 Z M 286 298 " clip-rule="nonzero"/></clipPath><clipPath id="6ccb509539"><path d="M 272 298 L 276 298 L 276 313.984375 L 272 313.984375 Z M 272 298 " clip-rule="nonzero"/></clipPath><clipPath id="fdd70f8433"><path d="M 249 298 L 262 298 L 262 313.984375 L 249 313.984375 Z M 249 298 " clip-rule="nonzero"/></clipPath><clipPath id="bfdd635281"><path d="M 224 298 L 239 298 L 239 313.984375 L 224 313.984375 Z M 224 298 " clip-rule="nonzero"/></clipPath><clipPath id="8c4467d218"><path d="M 200 298 L 213 298 L 213 313.984375 L 200 313.984375 Z M 200 298 " clip-rule="nonzero"/></clipPath><clipPath id="be40b76d41"><path d="M 176 298 L 189 298 L 189 313.984375 L 176 313.984375 Z M 176 298 " clip-rule="nonzero"/></clipPath><clipPath id="a24e125451"><path d="M 150 298 L 165 298 L 165 313.984375 L 150 313.984375 Z M 150 298 " clip-rule="nonzero"/></clipPath><clipPath id="7c87fa4b30"><path d="M 127 298 L 140 298 L 140 313.984375 L 127 313.984375 Z M 127 298 " clip-rule="nonzero"/></clipPath><clipPath id="a5169ed859"><path d="M 105 298 L 117 298 L 117 313.984375 L 105 313.984375 Z M 105 298 " clip-rule="nonzero"/></clipPath><clipPath id="dd36e83f45"><path d="M 67 298 L 78 298 L 78 313.984375 L 67 313.984375 Z M 67 298 " clip-rule="nonzero"/></clipPath><clipPath id="12b484f8b6"><path d="M 45 298 L 57 298 L 57 313.984375 L 45 313.984375 Z M 45 298 " clip-rule="nonzero"/></clipPath></defs><path fill="#171716" d="M 151.75 235.703125 C 151.792969 235.703125 151.835938 235.703125 151.878906 235.703125 C 151.925781 235.703125 151.96875 235.703125 152.015625 235.703125 C 152.066406 235.703125 152.117188 235.703125 152.164062 235.703125 C 152.300781 235.703125 152.441406 235.703125 152.578125 235.703125 C 152.726562 235.703125 152.875 235.703125 153.023438 235.703125 C 153.285156 235.703125 153.550781 235.703125 153.8125 235.703125 C 154.207031 235.703125 154.597656 235.703125 154.992188 235.703125 C 177.273438 235.695312 199.558594 235.707031 221.839844 235.710938 C 222.574219 236.804688 223.410156 238.054688 225.484375 241.050781 C 219.277344 263.347656 217.433594 268.761719 213.828125 284.210938 C 213.792969 284.484375 213.792969 284.484375 213.765625 284.554688 C 213.628906 284.625 213.53125 284.617188 213.382812 284.597656 C 213.25 284.582031 213.117188 284.585938 212.980469 284.585938 C 212.949219 284.585938 212.917969 284.585938 212.882812 284.585938 C 212.773438 284.585938 212.664062 284.585938 212.554688 284.585938 C 212.476562 284.585938 212.398438 284.585938 212.320312 284.585938 C 212.148438 284.585938 211.976562 284.589844 211.804688 284.589844 C 211.550781 284.589844 211.296875 284.589844 211.042969 284.589844 C 210.640625 284.59375 210.238281 284.59375 209.835938 284.59375 C 209.195312 284.597656 208.558594 284.597656 207.921875 284.601562 C 207.785156 284.601562 207.648438 284.601562 207.511719 284.601562 C 207.347656 284.601562 207.183594 284.601562 207.019531 284.605469 C 206.394531 284.605469 205.773438 284.605469 205.152344 284.609375 C 205.125 284.609375 205.097656 284.609375 205.066406 284.609375 C 204.144531 284.609375 203.222656 284.613281 202.300781 284.617188 C 201.351562 284.621094 200.40625 284.625 199.457031 284.625 C 199.324219 284.625 199.191406 284.625 199.054688 284.625 C 199.03125 284.625 199.003906 284.625 198.976562 284.625 C 198.550781 284.628906 198.128906 284.628906 197.703125 284.632812 C 197.277344 284.632812 196.851562 284.632812 196.425781 284.636719 C 196.171875 284.636719 195.917969 284.636719 195.667969 284.636719 C 195.476562 284.636719 195.289062 284.640625 195.101562 284.640625 C 195.023438 284.640625 194.945312 284.640625 194.871094 284.640625 C 194.765625 284.640625 194.664062 284.640625 194.558594 284.640625 C 194.511719 284.640625 194.511719 284.640625 194.46875 284.640625 C 194.261719 284.640625 194.15625 284.597656 194.003906 284.457031 C 198.976562 262.136719 199.0625 261.984375 201.78125 250.023438 C 201.78125 249.996094 201.785156 249.96875 201.785156 249.941406 C 198.878906 249.9375 195.972656 249.9375 193.070312 249.9375 C 192.996094 249.941406 192.933594 249.953125 192.867188 249.972656 C 192.855469 250.175781 192.789062 250.347656 192.734375 250.527344 C 188.8125 264.003906 188.8125 264.003906 183.746094 284.09375 C 183.699219 284.21875 183.671875 284.347656 183.644531 284.476562 C 183.636719 284.5 183.628906 284.527344 183.621094 284.554688 C 183.546875 284.59375 183.503906 284.59375 183.417969 284.59375 C 183.390625 284.59375 183.359375 284.59375 183.332031 284.59375 C 176.925781 284.578125 170.523438 284.582031 164.117188 284.597656 C 164.007812 284.597656 163.898438 284.597656 163.789062 284.597656 C 163.757812 284.597656 163.726562 284.597656 163.695312 284.597656 C 163.652344 284.597656 163.652344 284.597656 163.605469 284.597656 C 163.582031 284.597656 163.554688 284.597656 163.53125 284.597656 C 163.46875 284.589844 163.46875 284.589844 163.402344 284.523438 C 163.386719 284.003906 163.722656 283.179688 163.867188 282.601562 C 166.953125 270.488281 169.351562 261.839844 171.902344 250.527344 C 171.921875 250.527344 171.945312 250.527344 171.964844 250.527344 C 171.96875 250.488281 171.96875 250.488281 171.96875 250.449219 C 171.980469 250.246094 172.003906 250.089844 172.097656 249.910156 C 172.03125 249.925781 172.03125 249.925781 171.964844 249.941406 C 171.964844 249.917969 171.964844 249.898438 171.964844 249.875 C 171.933594 249.886719 171.902344 249.898438 171.867188 249.910156 C 171.816406 249.910156 171.761719 249.914062 171.707031 249.914062 C 171.675781 249.914062 171.644531 249.914062 171.609375 249.914062 C 168.546875 249.917969 165.488281 249.933594 162.425781 249.941406 C 162.414062 249.988281 162.398438 250.035156 162.382812 250.082031 C 162.371094 250.105469 162.363281 250.132812 162.355469 250.160156 C 162.242188 250.492188 162.242188 250.492188 162.179688 250.839844 C 162.167969 250.945312 162.140625 251.015625 162.101562 251.113281 C 158.824219 261.78125 158.542969 264.003906 153.589844 284.285156 C 153.585938 284.308594 153.582031 284.335938 153.578125 284.359375 C 153.574219 284.382812 153.570312 284.40625 153.566406 284.425781 C 153.523438 284.527344 153.472656 284.5625 153.378906 284.621094 C 153.265625 284.640625 153.15625 284.636719 153.046875 284.636719 C 153.011719 284.636719 152.976562 284.636719 152.941406 284.636719 C 152.828125 284.636719 152.714844 284.636719 152.601562 284.636719 C 152.515625 284.636719 152.433594 284.636719 152.351562 284.636719 C 146.328125 284.636719 140.300781 284.621094 134.277344 284.597656 C 134.195312 284.597656 134.117188 284.597656 134.035156 284.597656 C 133.925781 284.597656 133.816406 284.597656 133.707031 284.597656 C 133.675781 284.597656 133.644531 284.597656 133.613281 284.597656 C 133.582031 284.597656 133.554688 284.597656 133.523438 284.597656 C 133.488281 284.597656 133.488281 284.597656 133.449219 284.597656 C 133.390625 284.589844 133.390625 284.589844 133.324219 284.523438 C 133.308594 284.351562 133.339844 284.167969 133.390625 284.003906 C 133.410156 283.992188 133.433594 283.980469 133.453125 283.96875 C 133.464844 283.90625 133.476562 283.839844 133.488281 283.773438 C 133.507812 283.695312 133.527344 283.613281 133.546875 283.535156 C 136.425781 272.328125 138 268.328125 144.761719 241.320312 C 144.796875 241.183594 144.996094 240.953125 145.328125 240.703125 C 148.8125 238.054688 148.8125 238.054688 151.085938 236.082031 C 151.164062 236.003906 151.164062 236.003906 151.261719 236.003906 C 151.261719 235.972656 151.261719 235.941406 151.261719 235.90625 C 151.308594 235.890625 151.308594 235.890625 151.359375 235.875 C 151.390625 235.84375 151.425781 235.808594 151.457031 235.777344 C 151.570312 235.699219 151.617188 235.703125 151.75 235.703125 Z M 151.75 235.703125 " fill-opacity="1" fill-rule="nonzero"/><path fill="#171716" d="M 316.929688 235.710938 C 318.742188 235.710938 320.550781 235.710938 322.363281 235.710938 C 322.402344 235.710938 322.402344 235.710938 322.445312 235.710938 C 323.027344 235.710938 323.609375 235.707031 324.191406 235.707031 C 324.476562 235.707031 324.761719 235.707031 325.046875 235.707031 C 325.089844 235.707031 325.089844 235.707031 325.132812 235.707031 C 326.054688 235.707031 326.976562 235.707031 327.898438 235.707031 C 328.84375 235.707031 329.792969 235.707031 330.738281 235.707031 C 330.871094 235.707031 331.003906 235.707031 331.140625 235.707031 C 331.164062 235.707031 331.191406 235.707031 331.21875 235.707031 C 331.640625 235.707031 332.066406 235.707031 332.488281 235.703125 C 332.917969 235.703125 333.339844 235.703125 333.765625 235.703125 C 334.019531 235.703125 334.273438 235.703125 334.527344 235.703125 C 334.714844 235.703125 334.902344 235.703125 335.089844 235.703125 C 335.167969 235.703125 335.246094 235.703125 335.324219 235.703125 C 335.425781 235.703125 335.53125 235.703125 335.632812 235.703125 C 335.675781 235.703125 335.675781 235.703125 335.726562 235.703125 C 335.753906 235.703125 335.777344 235.703125 335.808594 235.703125 C 335.84375 235.703125 335.84375 235.703125 335.878906 235.703125 C 335.941406 235.710938 335.941406 235.710938 336.039062 235.777344 C 336.058594 235.960938 336.023438 236.101562 335.964844 236.277344 C 335.933594 236.394531 335.925781 236.503906 335.917969 236.621094 C 335.910156 236.6875 335.910156 236.6875 335.84375 236.753906 C 335.847656 236.808594 335.847656 236.808594 335.847656 236.863281 C 335.84375 236.996094 335.816406 237.03125 335.746094 237.144531 C 332.828125 246.691406 330.453125 257.683594 328.238281 267.882812 C 328.230469 267.921875 328.21875 267.964844 328.210938 268.007812 C 328.183594 268.109375 328.183594 268.109375 328.226562 268.175781 C 328.203125 268.1875 328.183594 268.199219 328.160156 268.210938 C 328.140625 268.28125 328.140625 268.28125 328.125 268.367188 C 328.121094 268.394531 328.113281 268.421875 328.105469 268.453125 C 328.09375 268.542969 328.09375 268.542969 328.097656 268.664062 C 328.074219 268.675781 328.054688 268.6875 328.03125 268.699219 C 328.019531 268.773438 328.019531 268.773438 328.015625 268.859375 C 328.003906 269.015625 328.003906 269.015625 327.933594 269.089844 C 327.921875 269.152344 327.914062 269.21875 327.910156 269.285156 C 327.902344 269.347656 327.902344 269.347656 327.871094 269.445312 C 349.902344 269.410156 352.042969 269.410156 351.960938 269.746094 C 351.105469 273.234375 349.902344 276.980469 348.003906 284.527344 C 347.882812 284.617188 347.769531 284.605469 347.621094 284.605469 C 347.589844 284.605469 347.558594 284.605469 347.527344 284.605469 C 347.421875 284.605469 347.320312 284.605469 347.214844 284.605469 C 347.140625 284.605469 347.0625 284.605469 346.988281 284.605469 C 346.800781 284.605469 346.613281 284.605469 346.421875 284.605469 C 346.199219 284.605469 345.972656 284.605469 345.746094 284.605469 C 345.324219 284.605469 344.902344 284.605469 344.480469 284.605469 C 331.976562 284.589844 319.476562 284.597656 306.976562 284.59375 C 306.554688 284.59375 306.136719 284.59375 305.71875 284.59375 C 305.492188 284.59375 305.265625 284.59375 305.042969 284.59375 C 304.839844 284.59375 304.632812 284.59375 304.429688 284.59375 C 304.355469 284.59375 304.285156 284.59375 304.210938 284.59375 C 304.109375 284.59375 304.011719 284.59375 303.910156 284.59375 C 303.882812 284.59375 303.851562 284.59375 303.824219 284.59375 C 303.710938 284.59375 303.625 284.589844 303.519531 284.554688 C 303.519531 284.46875 303.519531 284.382812 303.519531 284.296875 C 303.539062 284.285156 303.5625 284.273438 303.582031 284.261719 C 303.613281 284.175781 303.640625 284.09375 303.664062 284.003906 C 303.675781 283.96875 303.675781 283.96875 303.6875 283.929688 C 303.734375 283.75 303.777344 283.570312 303.808594 283.382812 C 303.832031 283.382812 303.851562 283.382812 303.875 283.382812 C 303.875 283.347656 303.875 283.308594 303.875 283.269531 C 303.871094 282.328125 306.976562 271.574219 316.34375 236.820312 C 316.355469 236.773438 316.367188 236.722656 316.375 236.675781 C 316.378906 236.644531 316.386719 236.617188 316.390625 236.585938 C 316.394531 236.554688 316.402344 236.523438 316.410156 236.492188 C 316.421875 236.433594 316.433594 236.378906 316.445312 236.320312 C 316.453125 236.277344 316.453125 236.277344 316.460938 236.234375 C 316.488281 236.101562 316.511719 235.972656 316.539062 235.84375 C 316.664062 235.804688 316.765625 235.777344 316.898438 235.777344 C 316.910156 235.753906 316.917969 235.734375 316.929688 235.710938 Z M 316.929688 235.710938 " fill-opacity="1" fill-rule="nonzero"/><path fill="#171716" d="M 77.507812 254.105469 C 77.5625 254.105469 77.5625 254.105469 77.617188 254.105469 C 77.671875 254.105469 77.671875 254.105469 77.734375 254.105469 C 77.773438 254.105469 77.816406 254.105469 77.859375 254.105469 C 77.972656 254.105469 78.089844 254.105469 78.207031 254.105469 C 86.015625 254.109375 93.824219 254.085938 101.632812 254.105469 C 101.660156 254.105469 101.691406 254.105469 101.722656 254.105469 C 101.8125 254.109375 101.8125 254.109375 101.914062 254.125 C 102.007812 254.148438 102.007812 254.148438 102.109375 254.121094 C 102.203125 254.109375 102.203125 254.109375 102.277344 254.132812 C 102.332031 254.171875 102.332031 254.171875 102.367188 254.269531 C 102.339844 254.289062 102.316406 254.308594 102.292969 254.328125 C 95.878906 259.109375 89.554688 264.195312 82.941406 268.675781 C 82.886719 268.714844 82.835938 268.753906 82.789062 268.792969 C 82.664062 268.890625 82.53125 268.972656 82.402344 269.054688 C 82.316406 269.117188 82.273438 269.167969 82.214844 269.25 C 82.234375 269.25 82.253906 269.25 82.273438 269.25 C 89.394531 269.246094 96.519531 269.214844 103.644531 269.238281 C 103.679688 269.238281 103.714844 269.238281 103.75 269.238281 C 103.78125 269.238281 103.8125 269.238281 103.84375 269.238281 C 103.871094 269.238281 103.898438 269.238281 103.929688 269.238281 C 103.960938 269.242188 103.960938 269.242188 103.992188 269.25 C 102.324219 276.976562 102.324219 276.976562 100.414062 284.457031 C 100.378906 284.46875 100.347656 284.480469 100.316406 284.488281 C 100.292969 284.523438 100.273438 284.554688 100.25 284.585938 C 100.1875 284.601562 100.1875 284.601562 100.109375 284.601562 C 100.082031 284.601562 100.050781 284.601562 100.019531 284.601562 C 99.988281 284.601562 99.953125 284.601562 99.921875 284.601562 C 99.867188 284.601562 99.867188 284.601562 99.816406 284.601562 C 99.699219 284.601562 99.578125 284.601562 99.460938 284.597656 C 83.085938 284.613281 66.714844 284.597656 50.339844 284.589844 C 50.277344 284.585938 50.277344 284.585938 50.214844 284.554688 C 52.59375 272.652344 52.25 274.140625 53.324219 269.574219 C 53.339844 269.371094 53.910156 269.015625 54.511719 268.632812 C 75.296875 255.355469 63.402344 262.921875 77.09375 254.214844 C 77.214844 254.097656 77.34375 254.105469 77.507812 254.105469 Z M 77.507812 254.105469 " fill-opacity="1" fill-rule="nonzero"/><path fill="#171716" d="M 139.898438 235.710938 C 139.890625 235.722656 139.878906 235.734375 139.867188 235.746094 C 139.921875 235.757812 139.972656 235.765625 140.03125 235.777344 C 140.070312 235.898438 140.050781 235.960938 140.019531 236.085938 C 140.011719 236.121094 140.003906 236.160156 139.992188 236.195312 C 139.96875 236.28125 139.941406 236.351562 139.898438 236.429688 C 133.675781 259.679688 133.675781 259.679688 127.367188 283.253906 C 127.355469 283.285156 127.34375 283.320312 127.332031 283.351562 C 127.308594 283.441406 127.289062 283.535156 127.269531 283.625 C 127.253906 283.710938 127.230469 283.789062 127.203125 283.871094 C 127.175781 283.957031 127.15625 284.039062 127.140625 284.132812 C 127.078125 284.460938 127.078125 284.460938 126.949219 284.578125 C 126.867188 284.628906 126.824219 284.632812 126.730469 284.632812 C 126.703125 284.632812 126.671875 284.632812 126.640625 284.632812 C 126.609375 284.632812 126.578125 284.632812 126.542969 284.632812 C 126.507812 284.632812 126.476562 284.632812 126.4375 284.632812 C 126.320312 284.632812 126.207031 284.632812 126.089844 284.632812 C 119.859375 284.628906 113.628906 284.613281 107.398438 284.59375 C 107.316406 284.59375 107.234375 284.59375 107.152344 284.59375 C 107.042969 284.59375 106.933594 284.59375 106.820312 284.59375 C 106.773438 284.59375 106.773438 284.59375 106.722656 284.59375 C 106.691406 284.59375 106.664062 284.59375 106.632812 284.59375 C 106.609375 284.59375 106.582031 284.59375 106.554688 284.59375 C 106.5 284.589844 106.5 284.589844 106.464844 284.558594 C 106.453125 284.347656 106.46875 284.144531 106.5 283.9375 C 106.5 283.917969 106.5 283.894531 106.5 283.871094 C 106.515625 283.859375 106.527344 283.847656 106.542969 283.835938 C 106.621094 283.746094 106.636719 283.640625 106.664062 283.527344 C 106.671875 283.492188 106.671875 283.492188 106.679688 283.457031 C 110.359375 267.800781 115.492188 251.96875 119.28125 236.410156 C 119.324219 236.238281 119.378906 236.078125 119.441406 235.914062 C 119.457031 235.875 119.472656 235.835938 119.488281 235.796875 C 119.5 235.769531 119.507812 235.742188 119.519531 235.710938 C 125.992188 235.699219 132.460938 235.683594 138.929688 235.675781 C 139.011719 235.675781 139.09375 235.675781 139.175781 235.675781 C 139.289062 235.675781 139.398438 235.675781 139.507812 235.675781 C 139.542969 235.675781 139.574219 235.675781 139.609375 235.675781 C 139.636719 235.675781 139.667969 235.675781 139.695312 235.675781 C 139.722656 235.675781 139.746094 235.675781 139.773438 235.675781 C 139.835938 235.679688 139.835938 235.679688 139.898438 235.710938 Z M 139.898438 235.710938 " fill-opacity="1" fill-rule="nonzero"/><path fill="#171716" d="M 290.503906 235.699219 C 290.53125 235.699219 290.558594 235.699219 290.585938 235.699219 C 290.632812 235.699219 290.632812 235.699219 290.679688 235.699219 C 290.714844 235.699219 290.746094 235.699219 290.78125 235.699219 C 290.890625 235.699219 291 235.699219 291.109375 235.699219 C 291.191406 235.699219 291.269531 235.699219 291.347656 235.699219 C 297.445312 235.691406 303.542969 235.707031 309.640625 235.710938 C 300.171875 271.570312 299.199219 275.402344 296.84375 283.988281 C 296.828125 284.097656 296.8125 284.207031 296.804688 284.316406 C 296.773438 284.457031 296.734375 284.5 296.617188 284.585938 C 296.511719 284.613281 296.40625 284.609375 296.296875 284.609375 C 296.261719 284.609375 296.230469 284.609375 296.195312 284.609375 C 289.890625 284.644531 283.585938 284.617188 277.28125 284.621094 C 277.214844 284.503906 277.210938 284.425781 277.214844 284.292969 C 277.238281 284.285156 277.257812 284.273438 277.28125 284.261719 C 277.289062 284.199219 277.296875 284.136719 277.300781 284.074219 C 277.316406 283.984375 277.347656 283.90625 277.382812 283.824219 C 282.90625 268.175781 284.605469 252 290.148438 236.238281 C 290.183594 236.121094 290.214844 236.003906 290.242188 235.886719 C 290.292969 235.746094 290.355469 235.699219 290.503906 235.699219 Z M 290.503906 235.699219 " fill-opacity="1" fill-rule="nonzero"/><path fill="#171716" d="M 45.558594 235.710938 C 67.964844 235.710938 90.375 235.710938 113.464844 235.710938 C 113.464844 235.734375 113.464844 235.753906 113.464844 235.777344 C 113.484375 235.769531 113.503906 235.761719 113.523438 235.757812 C 113.59375 235.746094 113.59375 235.746094 113.667969 235.765625 C 113.726562 235.808594 113.726562 235.808594 113.757812 235.878906 C 113.757812 235.976562 113.746094 236.003906 113.699219 236.089844 C 113.621094 236.238281 113.582031 236.390625 113.542969 236.554688 C 112.574219 240.738281 111.492188 245.632812 109.71875 249.378906 C 109.679688 249.476562 109.660156 249.574219 109.640625 249.679688 C 109.621094 249.753906 109.597656 249.8125 109.558594 249.875 C 109.484375 249.914062 109.4375 249.914062 109.351562 249.914062 C 109.324219 249.914062 109.292969 249.914062 109.261719 249.914062 C 109.230469 249.914062 109.195312 249.914062 109.164062 249.914062 C 109.109375 249.914062 109.109375 249.914062 109.054688 249.914062 C 108.9375 249.914062 108.816406 249.914062 108.699219 249.914062 C 108.613281 249.914062 108.527344 249.914062 108.441406 249.914062 C 92.085938 249.933594 75.734375 249.957031 59.382812 249.945312 C 59.332031 249.945312 59.332031 249.945312 59.28125 249.945312 C 58.976562 249.945312 58.976562 249.945312 58.839844 249.910156 C 58.789062 249.835938 58.789062 249.835938 58.742188 249.746094 C 58.652344 249.648438 58.574219 249.570312 58.449219 249.519531 C 58.449219 249.488281 58.449219 249.453125 58.449219 249.421875 C 55.339844 249.214844 48.511719 238.703125 45.917969 236.574219 C 45.847656 236.515625 45.789062 236.464844 45.734375 236.394531 C 45.6875 236.320312 45.6875 236.320312 45.589844 236.265625 C 45.472656 236.152344 45.363281 236.039062 45.265625 235.90625 C 45.265625 235.875 45.265625 235.84375 45.265625 235.808594 C 45.355469 235.789062 45.433594 235.777344 45.523438 235.777344 C 45.535156 235.753906 45.546875 235.734375 45.558594 235.710938 Z M 45.558594 235.710938 " fill-opacity="1" fill-rule="nonzero"/><path fill="#171716" d="M 251.953125 235.800781 C 247.308594 235.804688 242.664062 235.808594 238.019531 235.8125 C 235.304688 238.058594 234.527344 238.683594 232.785156 240.082031 C 232.542969 240.242188 232.476562 240.429688 232.402344 240.703125 C 229.691406 251.226562 228.984375 253.703125 223.253906 273.8125 C 222.367188 276.917969 221.363281 280.449219 220.210938 284.492188 C 220.261719 284.558594 220.292969 284.585938 220.375 284.601562 L 220.632812 284.601562 C 227.101562 284.628906 233.566406 284.628906 240.035156 284.601562 L 240.21875 284.601562 C 240.257812 284.601562 240.277344 284.601562 240.292969 284.601562 C 240.3125 284.597656 240.328125 284.597656 240.363281 284.589844 C 240.441406 284.539062 240.484375 284.511719 240.519531 284.425781 C 242.023438 278.273438 242.125 277.832031 242.582031 275.785156 C 242.839844 274.632812 243.210938 272.976562 244.007812 269.511719 C 244.039062 269.476562 244.054688 269.457031 244.074219 269.449219 C 244.089844 269.441406 244.109375 269.441406 244.148438 269.441406 L 244.359375 269.441406 C 246.566406 269.449219 248.773438 269.449219 250.980469 269.449219 C 252.203125 269.449219 253.429688 269.445312 254.652344 269.449219 L 254.640625 269.507812 L 254.625 269.589844 C 253.941406 272.746094 253.15625 275.894531 252.375 279.035156 C 251.949219 280.742188 251.523438 282.445312 251.117188 284.148438 L 251.113281 284.160156 C 251.082031 284.289062 251.054688 284.394531 251.105469 284.523438 C 251.230469 284.628906 251.339844 284.632812 251.496094 284.636719 L 251.589844 284.632812 C 254.226562 284.644531 257.132812 284.625 260.285156 284.601562 C 263.539062 284.578125 267.050781 284.550781 270.800781 284.558594 L 270.800781 284.460938 C 270.796875 284.410156 270.796875 284.386719 270.800781 284.363281 C 270.804688 284.339844 270.8125 284.316406 270.828125 284.269531 C 270.851562 284.191406 270.871094 284.109375 270.886719 284.027344 L 270.894531 283.984375 C 270.925781 283.828125 270.953125 283.679688 271.035156 283.535156 C 274.304688 270.835938 276.179688 263.710938 277.753906 257.722656 C 279.210938 252.179688 280.410156 247.613281 282.226562 240.5 C 282.289062 240.316406 282.292969 240.199219 282.261719 240.011719 C 282.179688 239.984375 282.179688 239.984375 282.097656 239.945312 C 280.710938 238.058594 279.902344 237.054688 279.046875 236.003906 L 278.988281 235.929688 C 278.953125 235.894531 278.941406 235.875 278.925781 235.859375 C 278.914062 235.847656 278.898438 235.835938 278.875 235.8125 L 278.777344 235.8125 L 278.777344 235.746094 C 278.667969 235.777344 278.566406 235.78125 278.449219 235.78125 L 278.371094 235.78125 L 277.332031 235.785156 C 268.871094 235.785156 260.414062 235.792969 251.953125 235.800781 Z M 250.011719 249.3125 L 249.886719 249.3125 C 249.636719 249.3125 249.417969 249.320312 249.183594 249.421875 L 249.160156 249.4375 C 249.058594 249.492188 249 249.519531 248.960938 249.644531 L 248.957031 249.714844 L 248.890625 249.714844 C 248.066406 252.695312 247.496094 255.734375 246.769531 258.738281 C 246.628906 259.296875 246.636719 259.5625 246.972656 259.984375 C 247.179688 260.164062 247.425781 260.1875 247.691406 260.183594 C 250.597656 260.199219 253.507812 260.191406 256.414062 260.183594 L 256.535156 260.179688 C 257.421875 260.1875 257.527344 259.734375 257.765625 258.878906 C 258.507812 256.171875 259.1875 253.445312 260.007812 250.761719 C 260.363281 249.601562 259.824219 249.449219 259.636719 249.390625 C 259.292969 249.285156 258.9375 249.316406 258.582031 249.316406 C 255.722656 249.320312 252.867188 249.304688 250.011719 249.3125 Z M 250.011719 249.3125 " fill-opacity="1" fill-rule="evenodd"/><g clip-path="url(#83ac5495b6)"><path fill="#171716" d="M 351.230469 298.800781 L 350.953125 309.113281 L 348.320312 309.113281 L 348.03125 298.800781 Z M 349.632812 313.714844 C 349.160156 313.714844 348.753906 313.546875 348.414062 313.210938 C 348.074219 312.871094 347.90625 312.464844 347.910156 311.988281 C 347.90625 311.519531 348.074219 311.117188 348.414062 310.78125 C 348.753906 310.445312 349.160156 310.277344 349.632812 310.277344 C 350.089844 310.277344 350.492188 310.445312 350.835938 310.78125 C 351.179688 311.117188 351.355469 311.519531 351.359375 311.988281 C 351.355469 312.304688 351.273438 312.59375 351.109375 312.859375 C 350.953125 313.117188 350.742188 313.328125 350.484375 313.484375 C 350.226562 313.636719 349.941406 313.714844 349.632812 313.714844 Z M 349.632812 313.714844 " fill-opacity="1" fill-rule="nonzero"/></g><g clip-path="url(#24571a297e)"><path fill="#171716" d="M 312.164062 313.527344 L 312.164062 298.800781 L 322.085938 298.800781 L 322.085938 301.367188 L 315.277344 301.367188 L 315.277344 304.878906 L 321.574219 304.878906 L 321.574219 307.445312 L 315.277344 307.445312 L 315.277344 310.960938 L 322.113281 310.960938 L 322.113281 313.527344 Z M 312.164062 313.527344 " fill-opacity="1" fill-rule="nonzero"/></g><g clip-path="url(#de2f2a61d4)"><path fill="#171716" d="M 290.300781 298.800781 L 293.859375 309.992188 L 294 309.992188 L 297.566406 298.800781 L 301.015625 298.800781 L 295.941406 313.527344 L 291.929688 313.527344 L 286.84375 298.800781 Z M 290.300781 298.800781 " fill-opacity="1" fill-rule="nonzero"/></g><g clip-path="url(#6ccb509539)"><path fill="#171716" d="M 272.59375 298.800781 L 275.707031 298.800781 L 275.707031 313.527344 L 272.59375 313.527344 Z M 272.59375 298.800781 " fill-opacity="1" fill-rule="nonzero"/></g><g clip-path="url(#fdd70f8433)"><path fill="#171716" d="M 249.136719 301.367188 L 249.136719 298.800781 L 261.230469 298.800781 L 261.230469 301.367188 L 256.722656 301.367188 L 256.722656 313.527344 L 253.644531 313.527344 L 253.644531 301.367188 Z M 249.136719 301.367188 " fill-opacity="1" fill-rule="nonzero"/></g><g clip-path="url(#bfdd635281)"><path fill="#171716" d="M 238.09375 303.957031 L 234.945312 303.957031 C 234.886719 303.550781 234.769531 303.1875 234.59375 302.871094 C 234.414062 302.550781 234.1875 302.277344 233.910156 302.054688 C 233.628906 301.828125 233.308594 301.65625 232.945312 301.535156 C 232.585938 301.414062 232.195312 301.355469 231.773438 301.355469 C 231.011719 301.355469 230.347656 301.542969 229.78125 301.921875 C 229.214844 302.296875 228.777344 302.84375 228.464844 303.5625 C 228.152344 304.277344 228 305.144531 228 306.164062 C 228 307.214844 228.152344 308.097656 228.464844 308.8125 C 228.78125 309.527344 229.222656 310.066406 229.789062 310.429688 C 230.355469 310.792969 231.007812 310.976562 231.75 310.976562 C 232.167969 310.976562 232.554688 310.921875 232.910156 310.8125 C 233.269531 310.699219 233.585938 310.539062 233.867188 310.328125 C 234.144531 310.113281 234.375 309.851562 234.554688 309.546875 C 234.742188 309.238281 234.871094 308.886719 234.945312 308.496094 L 238.09375 308.511719 C 238.011719 309.1875 237.808594 309.835938 237.484375 310.464844 C 237.160156 311.089844 236.726562 311.648438 236.179688 312.140625 C 235.640625 312.628906 234.992188 313.019531 234.238281 313.304688 C 233.492188 313.589844 232.644531 313.730469 231.703125 313.730469 C 230.386719 313.730469 229.214844 313.433594 228.179688 312.839844 C 227.148438 312.242188 226.332031 311.382812 225.734375 310.257812 C 225.140625 309.128906 224.84375 307.765625 224.84375 306.164062 C 224.84375 304.558594 225.144531 303.195312 225.746094 302.066406 C 226.351562 300.941406 227.171875 300.082031 228.207031 299.492188 C 229.242188 298.898438 230.40625 298.601562 231.703125 298.601562 C 232.554688 298.601562 233.34375 298.722656 234.074219 298.960938 C 234.808594 299.199219 235.457031 299.550781 236.023438 300.011719 C 236.589844 300.464844 237.046875 301.023438 237.402344 301.6875 C 237.761719 302.347656 237.992188 303.105469 238.09375 303.957031 Z M 238.09375 303.957031 " fill-opacity="1" fill-rule="nonzero"/></g><g clip-path="url(#8c4467d218)"><path fill="#171716" d="M 209.691406 298.800781 L 212.804688 298.800781 L 212.804688 308.363281 C 212.804688 309.4375 212.546875 310.378906 212.035156 311.183594 C 211.527344 311.988281 210.8125 312.617188 209.898438 313.066406 C 208.984375 313.511719 207.917969 313.738281 206.699219 313.738281 C 205.476562 313.738281 204.40625 313.511719 203.492188 313.066406 C 202.578125 312.617188 201.863281 311.988281 201.355469 311.183594 C 200.847656 310.378906 200.59375 309.4375 200.59375 308.363281 L 200.59375 298.800781 L 203.707031 298.800781 L 203.707031 308.097656 C 203.707031 308.660156 203.832031 309.160156 204.074219 309.59375 C 204.324219 310.03125 204.671875 310.375 205.125 310.621094 C 205.574219 310.871094 206.101562 310.996094 206.699219 310.996094 C 207.304688 310.996094 207.828125 310.871094 208.273438 310.621094 C 208.722656 310.375 209.070312 310.03125 209.316406 309.59375 C 209.566406 309.160156 209.691406 308.660156 209.691406 308.097656 Z M 209.691406 298.800781 " fill-opacity="1" fill-rule="nonzero"/></g><g clip-path="url(#be40b76d41)"><path fill="#171716" d="M 181.347656 313.527344 L 176.128906 313.527344 L 176.128906 298.800781 L 181.390625 298.800781 C 182.871094 298.800781 184.148438 299.097656 185.214844 299.6875 C 186.285156 300.269531 187.105469 301.113281 187.683594 302.210938 C 188.261719 303.308594 188.550781 304.621094 188.550781 306.152344 C 188.550781 307.683594 188.261719 309.003906 187.683594 310.105469 C 187.105469 311.207031 186.28125 312.054688 185.203125 312.644531 C 184.128906 313.234375 182.84375 313.527344 181.347656 313.527344 Z M 179.242188 310.859375 L 181.21875 310.859375 C 182.136719 310.859375 182.914062 310.699219 183.539062 310.371094 C 184.171875 310.039062 184.648438 309.53125 184.964844 308.839844 C 185.285156 308.144531 185.445312 307.25 185.445312 306.152344 C 185.445312 305.0625 185.285156 304.171875 184.964844 303.484375 C 184.648438 302.792969 184.175781 302.285156 183.546875 301.957031 C 182.921875 301.632812 182.144531 301.46875 181.226562 301.46875 L 179.242188 301.46875 Z M 179.242188 310.859375 " fill-opacity="1" fill-rule="nonzero"/></g><g clip-path="url(#a24e125451)"><path fill="#171716" d="M 164.085938 306.164062 C 164.085938 307.773438 163.78125 309.136719 163.175781 310.265625 C 162.570312 311.390625 161.746094 312.25 160.699219 312.84375 C 159.660156 313.433594 158.492188 313.730469 157.191406 313.730469 C 155.882812 313.730469 154.707031 313.433594 153.667969 312.839844 C 152.628906 312.242188 151.804688 311.382812 151.203125 310.257812 C 150.597656 309.128906 150.296875 307.765625 150.296875 306.164062 C 150.296875 304.558594 150.597656 303.195312 151.203125 302.066406 C 151.804688 300.941406 152.628906 300.082031 153.667969 299.492188 C 154.707031 298.898438 155.882812 298.601562 157.191406 298.601562 C 158.492188 298.601562 159.660156 298.898438 160.699219 299.492188 C 161.746094 300.082031 162.570312 300.941406 163.175781 302.066406 C 163.78125 303.195312 164.085938 304.558594 164.085938 306.164062 Z M 160.929688 306.164062 C 160.929688 305.125 160.773438 304.25 160.464844 303.535156 C 160.15625 302.820312 159.722656 302.277344 159.160156 301.910156 C 158.601562 301.539062 157.945312 301.355469 157.191406 301.355469 C 156.4375 301.355469 155.78125 301.539062 155.222656 301.910156 C 154.660156 302.277344 154.226562 302.820312 153.914062 303.535156 C 153.605469 304.25 153.453125 305.125 153.453125 306.164062 C 153.453125 307.207031 153.605469 308.082031 153.914062 308.796875 C 154.226562 309.511719 154.660156 310.054688 155.222656 310.421875 C 155.78125 310.792969 156.4375 310.976562 157.191406 310.976562 C 157.945312 310.976562 158.601562 310.792969 159.160156 310.421875 C 159.722656 310.054688 160.15625 309.511719 160.464844 308.796875 C 160.773438 308.082031 160.929688 307.207031 160.929688 306.164062 Z M 160.929688 306.164062 " fill-opacity="1" fill-rule="nonzero"/></g><g clip-path="url(#7c87fa4b30)"><path fill="#171716" d="M 127.535156 313.527344 L 127.535156 298.800781 L 133.34375 298.800781 C 134.457031 298.800781 135.40625 299 136.191406 299.398438 C 136.980469 299.792969 137.582031 300.351562 137.996094 301.074219 C 138.414062 301.792969 138.621094 302.640625 138.621094 303.613281 C 138.621094 304.589844 138.410156 305.429688 137.988281 306.136719 C 137.566406 306.835938 136.957031 307.371094 136.15625 307.746094 C 135.359375 308.121094 134.394531 308.308594 133.265625 308.308594 L 129.375 308.308594 L 129.375 305.804688 L 132.761719 305.804688 C 133.355469 305.804688 133.847656 305.722656 134.242188 305.5625 C 134.636719 305.398438 134.925781 305.152344 135.121094 304.828125 C 135.316406 304.5 135.414062 304.097656 135.414062 303.613281 C 135.414062 303.125 135.316406 302.710938 135.121094 302.375 C 134.925781 302.039062 134.632812 301.785156 134.234375 301.613281 C 133.84375 301.4375 133.34375 301.347656 132.746094 301.347656 L 130.648438 301.347656 L 130.648438 313.527344 Z M 135.484375 306.828125 L 139.144531 313.527344 L 135.707031 313.527344 L 132.128906 306.828125 Z M 135.484375 306.828125 " fill-opacity="1" fill-rule="nonzero"/></g><g clip-path="url(#a5169ed859)"><path fill="#171716" d="M 105.050781 313.527344 L 105.050781 298.800781 L 110.859375 298.800781 C 111.976562 298.800781 112.929688 299.015625 113.714844 299.441406 C 114.503906 299.863281 115.101562 300.449219 115.511719 301.203125 C 115.929688 301.953125 116.140625 302.8125 116.140625 303.792969 C 116.140625 304.769531 115.929688 305.632812 115.507812 306.378906 C 115.085938 307.128906 114.472656 307.710938 113.671875 308.128906 C 112.875 308.546875 111.914062 308.753906 110.78125 308.753906 L 107.078125 308.753906 L 107.078125 306.257812 L 110.277344 306.257812 C 110.878906 306.257812 111.371094 306.15625 111.761719 305.949219 C 112.152344 305.738281 112.445312 305.449219 112.636719 305.078125 C 112.832031 304.707031 112.933594 304.277344 112.933594 303.792969 C 112.933594 303.304688 112.832031 302.875 112.636719 302.511719 C 112.445312 302.144531 112.152344 301.859375 111.761719 301.65625 C 111.367188 301.449219 110.867188 301.347656 110.265625 301.347656 L 108.164062 301.347656 L 108.164062 313.527344 Z M 105.050781 313.527344 " fill-opacity="1" fill-rule="nonzero"/></g><g clip-path="url(#dd36e83f45)"><path fill="#171716" d="M 67.421875 313.527344 L 67.421875 298.800781 L 77.34375 298.800781 L 77.34375 301.367188 L 70.535156 301.367188 L 70.535156 304.878906 L 76.832031 304.878906 L 76.832031 307.445312 L 70.535156 307.445312 L 70.535156 310.960938 L 77.371094 310.960938 L 77.371094 313.527344 Z M 67.421875 313.527344 " fill-opacity="1" fill-rule="nonzero"/></g><g clip-path="url(#12b484f8b6)"><path fill="#171716" d="M 45.023438 313.527344 L 45.023438 298.800781 L 50.917969 298.800781 C 52.003906 298.800781 52.90625 298.960938 53.628906 299.285156 C 54.355469 299.605469 54.898438 300.050781 55.261719 300.621094 C 55.625 301.1875 55.808594 301.839844 55.808594 302.578125 C 55.808594 303.152344 55.695312 303.65625 55.464844 304.09375 C 55.234375 304.527344 54.917969 304.878906 54.515625 305.160156 C 54.117188 305.429688 53.660156 305.625 53.148438 305.742188 L 53.148438 305.882812 C 53.710938 305.910156 54.234375 306.066406 54.722656 306.359375 C 55.214844 306.652344 55.617188 307.0625 55.921875 307.589844 C 56.230469 308.109375 56.382812 308.734375 56.382812 309.457031 C 56.382812 310.238281 56.191406 310.9375 55.800781 311.550781 C 55.417969 312.160156 54.851562 312.640625 54.097656 312.996094 C 53.34375 313.351562 52.417969 313.527344 51.316406 313.527344 Z M 48.136719 310.984375 L 50.675781 310.984375 C 51.542969 310.984375 52.175781 310.816406 52.574219 310.484375 C 52.972656 310.152344 53.167969 309.707031 53.167969 309.148438 C 53.167969 308.742188 53.070312 308.382812 52.875 308.070312 C 52.679688 307.757812 52.398438 307.515625 52.035156 307.335938 C 51.675781 307.160156 51.246094 307.070312 50.746094 307.070312 L 48.136719 307.070312 Z M 48.136719 304.964844 L 50.445312 304.964844 C 50.871094 304.964844 51.25 304.890625 51.582031 304.742188 C 51.917969 304.585938 52.179688 304.371094 52.371094 304.09375 C 52.566406 303.816406 52.667969 303.484375 52.667969 303.09375 C 52.667969 302.5625 52.476562 302.132812 52.097656 301.808594 C 51.722656 301.480469 51.191406 301.320312 50.503906 301.320312 L 48.136719 301.320312 Z M 48.136719 304.964844 " fill-opacity="1" fill-rule="nonzero"/></g><path fill="#000000" d="M 242.539062 109.261719 C 242.292969 108.808594 242.011719 108.199219 240.957031 107.519531 C 225.355469 97.453125 209.515625 87.597656 193.691406 77.886719 C 190.746094 76.082031 189.3125 77.195312 186.402344 79.011719 C 171.226562 88.496094 152.40625 99.523438 138.679688 108.503906 C 135.171875 110.800781 139.871094 112.125 152.054688 118.882812 C 164.238281 125.640625 175.753906 132.941406 190.476562 141.261719 C 190.953125 141.535156 191.640625 141.832031 192.875 141.261719 C 194.113281 140.695312 195.34375 140.089844 197.445312 138.691406 C 211.496094 129.339844 226.304688 121.144531 240.957031 112.769531 C 243.074219 111.558594 242.785156 109.71875 242.539062 109.261719 Z M 242.539062 109.261719 " fill-opacity="1" fill-rule="nonzero"/><path fill="#000000" d="M 184.015625 144.679688 C 173.59375 138.742188 145.148438 123.582031 135.859375 117.816406 C 135.003906 117.285156 134.132812 116.628906 133.507812 116.808594 C 131.941406 117.269531 132.386719 118.601562 132.363281 120.640625 C 132.234375 132.089844 132.082031 164.554688 132.082031 175.984375 C 132.082031 178.082031 131.460938 177.804688 137.742188 181.554688 C 147.253906 187.230469 172.3125 202.15625 181.707031 207.703125 C 189.214844 212.136719 188.5625 207.96875 188.601562 201.382812 C 188.667969 189.933594 188.769531 161.683594 188.644531 150.90625 C 188.644531 150.90625 188.894531 148.746094 187.96875 147.5 C 187.042969 146.253906 185.71875 145.648438 184.015625 144.679688 Z M 184.015625 144.679688 " fill-opacity="1" fill-rule="nonzero"/><path fill="#000000" d="M 249.371094 119.171875 C 249.371094 117.257812 248.390625 116.8125 247.4375 116.867188 C 245.984375 116.953125 244.792969 118.109375 243.425781 118.886719 C 230.367188 126.308594 217.394531 133.875 204.3125 141.253906 C 200.996094 143.125 193.894531 146.804688 193.894531 148.648438 C 193.894531 159.917969 193.917969 184.632812 193.917969 203.535156 C 193.917969 205.257812 193.085938 208.640625 195.09375 209.230469 C 195.828125 209.445312 196.945312 209.75 197.6875 209.320312 C 221.976562 195.207031 223.710938 194.367188 248.203125 179.324219 C 249.074219 178.792969 249.507812 177.738281 249.507812 176.574219 C 249.507812 164.539062 249.371094 131.226562 249.371094 119.171875 Z M 249.371094 119.171875 " fill-opacity="1" fill-rule="nonzero"/><path fill="#ffffff" d="M 154.066406 156.242188 C 154.671875 156.609375 155.296875 156.941406 155.90625 157.300781 C 158.75 158.96875 161.613281 160.652344 164.488281 162.21875 C 165.628906 162.84375 166.605469 163.40625 167.667969 164.050781 C 167.765625 164.109375 167.867188 164.167969 167.96875 164.226562 C 168.171875 164.339844 168.371094 164.457031 168.570312 164.574219 C 168.753906 164.679688 168.933594 164.785156 169.117188 164.886719 C 169.992188 165.375 170.570312 165.933594 170.886719 166.898438 C 171.082031 167.636719 170.941406 168.316406 170.757812 169.035156 C 170.742188 169.109375 170.722656 169.183594 170.707031 169.253906 C 170.65625 169.453125 170.605469 169.652344 170.554688 169.851562 C 170.285156 170.921875 170.050781 172 169.78125 173.074219 C 169.710938 173.34375 169.644531 173.617188 169.582031 173.890625 C 169.308594 175.101562 168.992188 176.304688 168.699219 177.511719 C 168.378906 178.84375 168.378906 178.84375 167.894531 179.171875 C 167.582031 179.363281 167.152344 179.355469 166.796875 179.28125 C 166.621094 179.230469 166.46875 179.144531 166.308594 179.054688 C 166.195312 178.988281 166.082031 178.921875 165.96875 178.859375 C 165.933594 178.839844 165.933594 178.839844 165.898438 178.820312 C 162.007812 176.5625 158.011719 174.308594 150.960938 169.972656 C 150.425781 169.820312 150.011719 169.273438 149.753906 168.8125 C 149.222656 167.84375 149.316406 166.910156 149.617188 165.882812 C 149.664062 165.726562 149.699219 165.570312 149.734375 165.410156 C 150.164062 163.480469 150.65625 161.550781 151.140625 159.632812 C 151.402344 158.59375 151.550781 156.515625 152.566406 155.996094 C 153.058594 155.769531 153.640625 155.984375 154.066406 156.242188 Z M 154.066406 156.242188 " fill-opacity="1" fill-rule="nonzero"/><path fill="#fefefe" d="M 229.933594 152.984375 C 229.933594 153.003906 229.933594 153.023438 229.933594 153.042969 C 229.957031 153.050781 229.976562 153.058594 230 153.0625 C 230.097656 153.109375 230.15625 153.164062 230.226562 153.246094 C 230.265625 153.367188 230.25 153.433594 230.195312 153.542969 C 230.171875 153.585938 230.171875 153.585938 230.152344 153.628906 C 227.539062 158.800781 225.40625 164.253906 223 169.484375 C 222.988281 169.511719 222.976562 169.539062 222.964844 169.566406 C 222.886719 169.738281 222.804688 169.90625 222.71875 170.078125 C 222.679688 170.152344 222.648438 170.226562 222.621094 170.300781 C 222.5 170.253906 222.417969 170.164062 222.332031 170.074219 C 222.316406 170.058594 222.300781 170.042969 222.285156 170.027344 C 222.253906 169.996094 222.226562 169.96875 222.195312 169.9375 C 219.941406 167.625 219.957031 167.625 214.953125 162.253906 C 214.824219 162.210938 214.785156 161.808594 214.839844 161.703125 C 214.996094 161.382812 214.953125 161.300781 215.429688 160.8125 C 219.667969 158.355469 223.898438 155.886719 228.171875 153.492188 C 228.199219 153.476562 228.230469 153.457031 228.261719 153.441406 C 228.320312 153.40625 228.378906 153.375 228.4375 153.339844 C 228.476562 153.320312 228.476562 153.320312 228.519531 153.296875 C 228.542969 153.285156 228.566406 153.269531 228.589844 153.257812 C 228.652344 153.21875 228.652344 153.21875 228.710938 153.167969 C 228.769531 153.132812 228.769531 153.132812 228.886719 153.132812 C 228.886719 153.113281 228.886719 153.09375 228.886719 153.074219 C 229.273438 152.929688 229.539062 152.847656 229.933594 152.984375 Z M 229.933594 152.984375 " fill-opacity="1" fill-rule="nonzero"/><path fill="#fefefe" d="M 225.183594 166.601562 C 226.433594 168.050781 228.808594 170.480469 230.175781 171.792969 C 230.226562 171.847656 230.226562 171.847656 230.226562 171.90625 C 230.246094 171.90625 230.265625 171.90625 230.285156 171.90625 C 230.257812 172.289062 229.964844 172.902344 229.695312 173.183594 C 229.617188 173.269531 229.542969 173.351562 229.46875 173.441406 C 229.21875 173.734375 228.84375 173.933594 228.523438 174.109375 C 228.5 174.125 228.476562 174.136719 228.453125 174.148438 C 224.511719 176.339844 220.667969 178.757812 216.898438 181.054688 C 216.867188 181.074219 216.839844 181.089844 216.808594 181.109375 C 216.625 181.222656 216.625 181.222656 216.445312 181.335938 C 215.628906 181.847656 215.628906 181.847656 215.1875 181.789062 C 214.980469 181.734375 214.800781 181.632812 214.664062 181.46875 C 214.636719 181.410156 214.636719 181.410156 214.632812 181.351562 C 214.671875 181.28125 214.671875 181.28125 214.722656 181.203125 C 214.742188 181.152344 214.761719 181.097656 214.78125 181.042969 C 216.898438 176.242188 218.074219 173.816406 219.652344 170.277344 C 219.878906 169.769531 219.878906 169.769531 219.996094 169.542969 C 220.105469 169.582031 220.167969 169.617188 220.238281 169.703125 C 220.925781 170.433594 220.925781 170.433594 221.796875 171.332031 C 221.867188 171.414062 221.9375 171.46875 222.023438 171.53125 C 222.050781 171.550781 222.078125 171.570312 222.105469 171.589844 C 222.320312 171.734375 222.507812 171.742188 222.707031 171.585938 C 222.863281 171.402344 223.089844 170.941406 223.109375 170.941406 C 223.3125 170.429688 223.433594 170.363281 223.695312 169.734375 C 223.792969 169.507812 223.902344 169.273438 224.015625 169.054688 C 224.082031 168.925781 224.140625 168.796875 224.191406 168.660156 C 224.441406 168.019531 224.765625 167.40625 225.039062 166.773438 C 225.058594 166.773438 225.078125 166.773438 225.097656 166.773438 C 225.101562 166.757812 225.105469 166.738281 225.109375 166.71875 C 225.125 166.65625 225.125 166.65625 225.183594 166.601562 Z M 225.183594 166.601562 " fill-opacity="1" fill-rule="nonzero"/><path fill="#fdfefe" d="M 151.300781 148.085938 C 152.675781 148.792969 154.285156 149.605469 154.828125 151.148438 C 155.089844 151.871094 154.726562 153.03125 155.128906 153.644531 C 158.703125 155.574219 162.15625 157.714844 165.710938 159.675781 C 167.21875 160.507812 168.636719 161.808594 168.617188 163.699219 C 168.613281 163.949219 168.441406 163.851562 168.265625 163.742188 C 163.730469 160.898438 158.921875 158.527344 154.351562 155.75 C 152.941406 154.890625 151.597656 155.308594 151.238281 156.898438 C 150.640625 159.53125 150.269531 160.753906 149.40625 164.210938 C 149.390625 159.3125 149.613281 154.414062 149.617188 149.519531 C 149.621094 148.550781 150.214844 147.5 151.300781 148.085938 Z M 151.300781 148.085938 " fill-opacity="1" fill-rule="nonzero"/><path fill="#fefdfc" d="M 214.167969 163.773438 C 214.542969 163.839844 214.875 164.222656 215.148438 164.46875 C 215.246094 164.558594 215.347656 164.648438 215.449219 164.734375 C 215.507812 164.785156 215.566406 164.835938 215.621094 164.886719 C 215.664062 164.921875 215.707031 164.960938 215.75 164.996094 C 215.886719 165.117188 216.007812 165.234375 216.121094 165.375 C 216.121094 165.394531 216.121094 165.414062 216.121094 165.433594 C 216.136719 165.4375 216.152344 165.4375 216.167969 165.441406 C 216.300781 165.488281 216.382812 165.609375 216.46875 165.714844 C 216.542969 165.796875 216.617188 165.863281 216.703125 165.929688 C 216.804688 166.027344 216.890625 166.128906 216.976562 166.238281 C 217.050781 166.328125 217.121094 166.414062 217.214844 166.488281 C 217.238281 166.503906 217.261719 166.523438 217.285156 166.542969 C 217.285156 166.5625 217.285156 166.582031 217.285156 166.601562 C 217.304688 166.609375 217.320312 166.617188 217.335938 166.625 C 217.519531 166.722656 217.652344 166.910156 217.785156 167.066406 C 217.867188 167.15625 217.953125 167.238281 218.039062 167.324219 C 218.113281 167.402344 218.1875 167.480469 218.257812 167.566406 C 218.292969 167.609375 218.335938 167.648438 218.375 167.6875 C 218.460938 167.773438 218.539062 167.863281 218.617188 167.957031 C 218.632812 167.972656 218.644531 167.992188 218.660156 168.011719 C 218.691406 168.046875 218.722656 168.085938 218.753906 168.121094 C 218.800781 168.171875 218.84375 168.222656 218.886719 168.273438 C 219.367188 168.832031 219.367188 168.832031 219.414062 169.019531 C 219.390625 169.101562 219.390625 169.101562 219.347656 169.179688 C 219.335938 169.207031 219.320312 169.234375 219.308594 169.261719 C 219.292969 169.289062 219.28125 169.316406 219.269531 169.339844 C 219.25 169.390625 219.230469 169.4375 219.210938 169.488281 C 219.1875 169.523438 219.1875 169.523438 219.167969 169.558594 C 219.121094 169.632812 219.121094 169.632812 219.097656 169.710938 C 219.050781 169.847656 218.984375 169.972656 218.917969 170.101562 C 218.859375 170.214844 218.8125 170.328125 218.773438 170.449219 C 218.742188 170.519531 218.710938 170.589844 218.675781 170.660156 C 218.65625 170.699219 218.640625 170.738281 218.621094 170.777344 C 218.613281 170.792969 218.601562 170.8125 218.59375 170.832031 C 218.507812 171.011719 218.425781 171.195312 218.351562 171.378906 C 218.289062 171.53125 218.21875 171.675781 218.144531 171.820312 C 218.101562 171.90625 218.066406 171.992188 218.03125 172.078125 C 217.960938 172.25 217.878906 172.414062 217.792969 172.578125 C 217.761719 172.648438 217.738281 172.707031 217.722656 172.78125 C 217.703125 172.78125 217.683594 172.78125 217.664062 172.78125 C 217.660156 172.816406 217.652344 172.855469 217.648438 172.894531 C 217.613281 173.039062 217.550781 173.15625 217.476562 173.285156 C 217.421875 173.382812 217.382812 173.480469 217.34375 173.582031 C 217.304688 173.6875 217.253906 173.78125 217.203125 173.882812 C 217.167969 173.949219 217.136719 174.019531 217.109375 174.09375 C 217.074219 174.171875 217.035156 174.25 217 174.332031 C 216.941406 174.457031 216.886719 174.582031 216.839844 174.714844 C 216.773438 174.890625 216.6875 175.054688 216.597656 175.222656 C 216.511719 175.375 216.445312 175.53125 216.386719 175.695312 C 216.351562 175.785156 216.3125 175.867188 216.269531 175.953125 C 216.210938 176.066406 216.15625 176.179688 216.105469 176.292969 C 216.085938 176.328125 216.085938 176.328125 216.070312 176.367188 C 216.019531 176.472656 215.96875 176.582031 215.925781 176.695312 C 215.894531 176.785156 215.859375 176.863281 215.816406 176.945312 C 215.769531 177.042969 215.726562 177.136719 215.6875 177.234375 C 215.632812 177.375 215.566406 177.503906 215.496094 177.640625 C 215.441406 177.753906 215.390625 177.871094 215.347656 177.992188 C 215.289062 178.140625 215.222656 178.277344 215.140625 178.417969 C 215.089844 178.515625 215.050781 178.617188 215.011719 178.71875 C 214.976562 178.804688 214.933594 178.886719 214.894531 178.96875 C 214.855469 179.039062 214.832031 179.117188 214.808594 179.195312 C 214.789062 179.195312 214.769531 179.195312 214.75 179.195312 C 214.742188 179.222656 214.738281 179.25 214.730469 179.277344 C 214.695312 179.40625 214.636719 179.519531 214.582031 179.640625 C 214.554688 179.707031 214.527344 179.769531 214.503906 179.835938 C 214.445312 179.996094 214.363281 180.148438 214.285156 180.304688 C 214.234375 180.292969 214.1875 180.285156 214.136719 180.273438 C 214.136719 178.8125 214.136719 177.355469 214.136719 175.894531 C 214.136719 175.8125 214.136719 175.726562 214.136719 175.644531 C 214.136719 173.113281 214.136719 170.585938 214.152344 166.53125 C 214.152344 166.492188 214.152344 166.457031 214.152344 166.421875 C 214.15625 165.539062 214.164062 164.65625 214.167969 163.773438 Z M 214.167969 163.773438 " fill-opacity="1" fill-rule="nonzero"/><path fill="#fefefd" d="M 230.546875 154.5 C 230.59375 154.5 230.644531 154.5 230.691406 154.5 C 230.746094 154.554688 230.726562 154.632812 230.726562 154.703125 C 230.726562 154.742188 230.726562 154.742188 230.726562 154.78125 C 230.726562 154.804688 230.726562 154.832031 230.726562 154.859375 C 230.726562 154.949219 230.726562 155.042969 230.726562 155.132812 C 230.726562 155.195312 230.726562 155.261719 230.726562 155.324219 C 230.726562 155.503906 230.726562 155.683594 230.726562 155.863281 C 230.726562 156.035156 230.726562 156.210938 230.726562 156.382812 C 230.726562 156.78125 230.726562 157.179688 230.726562 157.578125 C 230.726562 157.882812 230.726562 158.191406 230.726562 158.5 C 230.726562 158.585938 230.726562 158.675781 230.726562 158.765625 C 230.726562 158.796875 230.726562 158.796875 230.726562 158.832031 C 230.726562 159.449219 230.726562 160.066406 230.726562 160.683594 C 230.726562 160.71875 230.726562 160.71875 230.726562 160.753906 C 230.726562 160.875 230.726562 160.992188 230.726562 161.109375 C 230.726562 161.132812 230.726562 161.15625 230.726562 161.179688 C 230.726562 161.230469 230.726562 161.277344 230.726562 161.324219 C 230.726562 162.0625 230.726562 162.800781 230.726562 163.539062 C 230.726562 164.371094 230.730469 165.199219 230.730469 166.027344 C 230.730469 166.117188 230.730469 166.203125 230.730469 166.292969 C 230.730469 166.316406 230.730469 166.335938 230.730469 166.359375 C 230.730469 166.710938 230.730469 167.0625 230.730469 167.410156 C 230.730469 167.765625 230.730469 168.117188 230.730469 168.46875 C 230.730469 168.660156 230.730469 168.851562 230.730469 169.042969 C 230.730469 169.214844 230.730469 169.390625 230.730469 169.566406 C 230.730469 169.628906 230.730469 169.691406 230.730469 169.757812 C 230.730469 169.839844 230.730469 169.925781 230.730469 170.011719 C 230.730469 170.050781 230.730469 170.050781 230.730469 170.089844 C 230.726562 170.296875 230.726562 170.296875 230.664062 170.390625 C 230.535156 170.378906 230.464844 170.289062 230.378906 170.203125 C 230.363281 170.1875 230.351562 170.171875 230.335938 170.15625 C 230.226562 170.046875 230.226562 170.046875 230.226562 169.980469 C 230.210938 169.976562 230.191406 169.96875 230.175781 169.960938 C 230.09375 169.914062 230.046875 169.859375 229.984375 169.789062 C 229.964844 169.765625 229.941406 169.738281 229.917969 169.710938 C 229.882812 169.671875 229.882812 169.671875 229.847656 169.632812 C 229.710938 169.476562 229.570312 169.324219 229.421875 169.179688 C 229.378906 169.136719 229.335938 169.09375 229.292969 169.046875 C 229.292969 169.03125 229.292969 169.011719 229.292969 168.992188 C 229.265625 168.980469 229.234375 168.972656 229.207031 168.960938 C 229.164062 168.917969 229.164062 168.917969 229.117188 168.859375 C 229.097656 168.839844 229.078125 168.820312 229.0625 168.796875 C 229.042969 168.773438 229.023438 168.753906 229.003906 168.726562 C 228.957031 168.675781 228.910156 168.621094 228.863281 168.570312 C 228.84375 168.546875 228.820312 168.519531 228.796875 168.496094 C 228.742188 168.429688 228.742188 168.429688 228.652344 168.40625 C 228.617188 168.367188 228.617188 168.367188 228.582031 168.3125 C 228.496094 168.195312 228.402344 168.085938 228.300781 167.980469 C 228.285156 167.964844 228.273438 167.949219 228.257812 167.929688 C 228.1875 167.859375 228.117188 167.785156 228.046875 167.714844 C 227.980469 167.648438 227.980469 167.648438 227.925781 167.578125 C 227.875 167.515625 227.832031 167.472656 227.769531 167.421875 C 227.652344 167.324219 227.554688 167.210938 227.457031 167.097656 C 227.425781 167.058594 227.398438 167.023438 227.367188 166.988281 C 227.355469 166.972656 227.339844 166.957031 227.328125 166.941406 C 227.265625 166.875 227.203125 166.808594 227.136719 166.746094 C 227.039062 166.648438 226.941406 166.550781 226.847656 166.453125 C 226.820312 166.429688 226.796875 166.40625 226.769531 166.378906 C 226.703125 166.3125 226.640625 166.246094 226.578125 166.171875 C 226.480469 166.0625 226.378906 165.960938 226.277344 165.855469 C 226.152344 165.734375 226.042969 165.609375 225.9375 165.46875 C 225.878906 165.398438 225.8125 165.34375 225.738281 165.289062 C 225.785156 165.003906 225.941406 164.734375 226.082031 164.484375 C 226.128906 164.394531 226.152344 164.308594 226.175781 164.210938 C 226.195312 164.210938 226.214844 164.210938 226.234375 164.210938 C 226.238281 164.175781 226.238281 164.175781 226.238281 164.140625 C 226.265625 164.019531 226.3125 163.929688 226.371094 163.820312 C 226.40625 163.746094 226.4375 163.671875 226.46875 163.59375 C 226.507812 163.488281 226.554688 163.398438 226.609375 163.304688 C 226.667969 163.199219 226.707031 163.082031 226.746094 162.96875 C 226.8125 162.804688 226.886719 162.648438 226.960938 162.488281 C 227.03125 162.339844 227.101562 162.1875 227.160156 162.03125 C 227.210938 161.898438 227.273438 161.773438 227.339844 161.648438 C 227.421875 161.484375 227.496094 161.324219 227.566406 161.15625 C 227.613281 161.039062 227.660156 160.925781 227.710938 160.8125 C 227.722656 160.792969 227.730469 160.769531 227.742188 160.746094 C 227.796875 160.625 227.851562 160.507812 227.902344 160.386719 C 227.925781 160.335938 227.949219 160.289062 227.972656 160.238281 C 227.984375 160.214844 227.992188 160.1875 228.003906 160.164062 C 228.097656 159.957031 228.1875 159.753906 228.273438 159.546875 C 228.292969 159.546875 228.3125 159.546875 228.332031 159.546875 C 228.335938 159.511719 228.339844 159.480469 228.34375 159.445312 C 228.359375 159.339844 228.359375 159.339844 228.417969 159.28125 C 228.476562 159.15625 228.527344 159.027344 228.574219 158.894531 C 228.65625 158.679688 228.75 158.476562 228.859375 158.273438 C 228.941406 158.128906 229 157.980469 229.054688 157.824219 C 229.097656 157.71875 229.148438 157.617188 229.199219 157.515625 C 229.246094 157.425781 229.285156 157.328125 229.320312 157.234375 C 229.367188 157.117188 229.417969 157.003906 229.46875 156.890625 C 229.480469 156.871094 229.488281 156.847656 229.5 156.824219 C 229.859375 156.015625 229.859375 156.015625 230 155.746094 C 230.054688 155.640625 230.09375 155.53125 230.140625 155.417969 C 230.164062 155.355469 230.195312 155.292969 230.226562 155.230469 C 230.28125 155.121094 230.328125 155.011719 230.371094 154.894531 C 230.425781 154.761719 230.484375 154.628906 230.546875 154.5 Z M 230.546875 154.5 " fill-opacity="1" fill-rule="nonzero"/><path fill="#fefefd" d="M 190.582031 98.085938 L 190.375 98.085938 C 189.871094 98.082031 189.375 98.085938 188.878906 98.136719 C 188.753906 98.148438 188.628906 98.160156 188.503906 98.167969 L 188.492188 98.167969 C 188.011719 98.203125 187.535156 98.238281 187.058594 98.3125 L 186.972656 98.324219 C 186.710938 98.367188 186.445312 98.40625 186.183594 98.453125 L 186.070312 98.472656 C 185.671875 98.539062 185.28125 98.609375 184.890625 98.726562 C 184.742188 98.773438 184.589844 98.8125 184.433594 98.847656 C 184.207031 98.902344 183.980469 98.957031 183.757812 99.03125 C 183.667969 99.058594 183.582031 99.085938 183.492188 99.113281 C 181.621094 99.617188 177.371094 101.714844 176.125 104.398438 C 175.339844 106.097656 174.835938 108.023438 175.742188 109.800781 L 175.769531 109.855469 C 175.804688 109.917969 175.835938 109.980469 175.871094 110.042969 L 175.929688 110.042969 C 175.941406 110.144531 175.960938 110.226562 175.996094 110.320312 L 176.042969 110.425781 C 176.050781 110.4375 176.054688 110.453125 176.0625 110.464844 C 176.089844 110.539062 176.117188 110.613281 176.175781 110.671875 C 176.222656 110.71875 176.242188 110.761719 176.269531 110.824219 L 176.308594 110.917969 L 176.363281 110.917969 C 176.390625 111.003906 176.390625 111.003906 176.421875 111.09375 L 176.511719 111.125 C 176.511719 111.152344 176.511719 111.167969 176.515625 111.179688 C 176.519531 111.195312 176.527344 111.207031 176.546875 111.234375 C 176.59375 111.292969 176.640625 111.355469 176.6875 111.414062 C 176.742188 111.511719 176.796875 111.585938 176.875 111.664062 C 176.9375 111.722656 176.980469 111.769531 177.027344 111.84375 L 177.066406 111.910156 C 177.128906 111.957031 177.179688 112 177.230469 112.058594 C 177.304688 112.15625 177.371094 112.246094 177.460938 112.324219 L 177.53125 112.378906 C 177.578125 112.425781 177.628906 112.476562 177.675781 112.523438 L 177.765625 112.550781 L 177.765625 112.609375 C 177.832031 112.691406 177.90625 112.757812 177.996094 112.8125 C 178.085938 112.824219 178.140625 112.808594 178.230469 112.785156 L 178.230469 112.726562 C 178.316406 112.726562 178.316406 112.726562 178.410156 112.703125 L 178.511719 112.667969 L 178.695312 112.609375 L 178.695312 112.550781 C 178.765625 112.554688 178.765625 112.554688 178.84375 112.550781 C 178.921875 112.5 178.992188 112.464844 179.078125 112.433594 L 179.140625 112.410156 C 179.351562 112.332031 179.5625 112.265625 179.777344 112.199219 L 179.863281 112.171875 L 179.863281 112.113281 C 179.941406 112.113281 179.964844 112.113281 179.992188 112.109375 C 180.003906 112.105469 180.015625 112.101562 180.03125 112.09375 C 180.167969 112.027344 180.304688 111.976562 180.449219 111.929688 C 180.683594 111.851562 180.914062 111.765625 181.144531 111.675781 C 181.144531 111.589844 181.144531 111.589844 180.941406 111.386719 C 180.875 111.324219 180.8125 111.257812 180.753906 111.195312 L 180.707031 111.144531 L 180.617188 111.046875 C 180.613281 111.039062 180.605469 111.03125 180.597656 111.023438 C 180.53125 110.945312 180.46875 110.875 180.375 110.820312 L 180.328125 110.800781 L 180.328125 110.714844 C 180.296875 110.683594 180.28125 110.667969 180.265625 110.660156 C 180.25 110.652344 180.234375 110.648438 180.207031 110.640625 L 180.152344 110.628906 C 180.152344 110.585938 180.152344 110.566406 180.148438 110.546875 C 180.140625 110.523438 180.128906 110.5 180.09375 110.453125 L 180.039062 110.453125 C 180.039062 110.414062 180.039062 110.390625 180.03125 110.371094 C 180.023438 110.347656 180.007812 110.324219 179.976562 110.277344 C 179.742188 109.960938 179.535156 109.589844 179.417969 109.210938 C 179.394531 109.113281 179.363281 109.019531 179.332031 108.925781 C 179.078125 108.234375 179.042969 107.402344 179.203125 106.683594 L 179.222656 106.605469 C 179.289062 106.328125 179.355469 106.054688 179.460938 105.785156 C 180.007812 104.382812 181.152344 103.015625 182.589844 102.433594 L 182.660156 102.40625 C 182.761719 102.300781 182.851562 102.25 182.984375 102.195312 C 183.300781 102.066406 183.609375 101.921875 183.921875 101.773438 C 184.511719 101.496094 185.117188 101.210938 185.800781 101.039062 C 185.863281 101.023438 185.921875 101.007812 185.984375 100.992188 C 186.046875 100.976562 186.105469 100.960938 186.167969 100.945312 C 186.671875 100.8125 187.175781 100.683594 187.691406 100.613281 C 187.742188 100.605469 187.796875 100.597656 187.847656 100.589844 C 188.851562 100.449219 189.84375 100.390625 190.859375 100.386719 L 190.964844 100.386719 C 194.929688 100.371094 200.351562 101.851562 202.296875 105.601562 L 202.332031 105.671875 C 202.386719 105.769531 202.433594 105.867188 202.480469 105.96875 C 202.835938 106.820312 202.976562 107.953125 202.636719 108.832031 C 202.421875 109.378906 202.164062 110.03125 201.664062 110.585938 C 201.164062 111.144531 200.566406 111.644531 199.910156 112.082031 L 199.871094 112.109375 C 199.371094 112.4375 198.875 112.761719 198.222656 113.011719 L 198.164062 113.035156 L 198.050781 113.078125 C 197.933594 113.125 197.820312 113.164062 197.699219 113.195312 L 197.582031 113.222656 C 196.875 113.414062 196.0625 113.507812 195.339844 113.335938 L 195.25 113.308594 C 195.171875 113.289062 195.097656 113.261719 195.023438 113.234375 L 194.929688 113.191406 C 194.855469 113.160156 194.78125 113.128906 194.707031 113.097656 L 194.625 113.0625 C 194.617188 113.058594 194.605469 113.054688 194.597656 113.050781 C 194.476562 113 194.371094 112.957031 194.277344 112.855469 C 194.230469 112.785156 194.230469 112.785156 194.171875 112.742188 C 194.085938 112.6875 194.015625 112.640625 193.964844 112.550781 C 193.894531 112.367188 193.875 112.164062 193.9375 111.976562 C 193.949219 111.949219 193.957031 111.933594 193.964844 111.914062 C 193.972656 111.894531 193.976562 111.871094 193.988281 111.8125 L 193.996094 111.734375 C 194.214844 111.472656 194.5 111.300781 194.75 111.152344 C 194.824219 111.109375 194.894531 111.066406 194.957031 111.023438 L 195.027344 110.980469 C 196.636719 109.945312 197.308594 109.550781 198.140625 109.0625 C 198.613281 108.785156 199.136719 108.476562 199.914062 108.003906 L 199.96875 107.988281 C 200.042969 107.972656 200.042969 107.972656 200.1875 107.890625 L 200.242188 107.855469 C 200.308594 107.820312 200.375 107.78125 200.4375 107.742188 L 200.410156 107.65625 L 200.347656 107.632812 L 200.292969 107.625 L 200.292969 107.566406 L 200.148438 107.539062 L 200.148438 107.480469 L 200.058594 107.421875 C 199.914062 107.320312 199.765625 107.226562 199.617188 107.132812 L 199.546875 107.09375 L 199.410156 107.007812 C 199.316406 106.953125 199.1875 106.886719 199.042969 106.820312 C 198.707031 106.652344 198.308594 106.457031 198.1875 106.25 L 198.164062 106.195312 L 198.050781 106.195312 L 198.050781 106.136719 C 198.035156 106.132812 198.019531 106.128906 198.007812 106.125 C 197.910156 106.097656 197.832031 106.074219 197.769531 105.988281 C 197.726562 105.90625 197.726562 105.90625 197.691406 105.847656 C 196.945312 104.753906 195.433594 103.496094 194.164062 103.214844 C 194.09375 103.199219 194.027344 103.183594 193.957031 103.167969 C 192.695312 102.878906 191.859375 102.691406 190.472656 102.6875 L 190.289062 102.6875 C 189.105469 102.679688 187.898438 102.800781 186.785156 103.214844 C 186.730469 103.234375 186.675781 103.253906 186.625 103.273438 C 186.601562 103.28125 186.578125 103.289062 186.554688 103.296875 C 186.394531 103.355469 186.234375 103.414062 186.082031 103.492188 C 185.960938 103.554688 185.839844 103.613281 185.722656 103.675781 C 185.308594 103.878906 184.914062 104.078125 184.59375 104.375 C 184.5625 104.410156 184.527344 104.441406 184.496094 104.476562 L 184.410156 104.507812 L 184.378906 104.5625 C 184.289062 104.59375 184.265625 104.609375 184.207031 104.679688 C 184.203125 104.6875 184.199219 104.695312 184.195312 104.699219 C 184.167969 104.761719 184.15625 104.792969 184.089844 104.828125 L 184.03125 104.855469 L 183.972656 104.941406 C 183.761719 105.152344 183.613281 105.335938 183.5 105.613281 L 183.476562 105.671875 L 183.417969 105.671875 C 183.398438 105.730469 183.378906 105.789062 183.359375 105.847656 C 183.332031 105.894531 183.300781 105.945312 183.273438 105.992188 C 183.003906 106.691406 183.023438 107.527344 183.25 108.234375 L 183.273438 108.296875 C 183.472656 108.898438 183.839844 109.320312 184.292969 109.722656 C 184.367188 109.800781 184.433594 109.867188 184.527344 109.929688 C 184.613281 109.984375 184.613281 109.984375 184.6875 110.058594 C 185.492188 110.882812 187.035156 111.375 188.222656 111.605469 L 188.3125 111.617188 L 188.410156 111.632812 L 188.515625 111.648438 C 189.054688 111.722656 189.589844 111.773438 190.136719 111.765625 L 190.238281 111.765625 C 190.230469 111.8125 190.21875 111.863281 190.210938 111.910156 C 190.117188 112.304688 190.128906 112.660156 190.277344 113.035156 C 190.832031 114.230469 192.636719 115.152344 193.859375 115.441406 L 193.871094 115.441406 C 193.964844 115.464844 194.058594 115.484375 194.148438 115.523438 C 194.398438 115.625 194.65625 115.660156 194.925781 115.695312 L 195.007812 115.707031 C 195.832031 115.820312 196.726562 115.875 197.550781 115.730469 C 197.589844 115.722656 197.632812 115.714844 197.671875 115.707031 L 197.742188 115.695312 C 197.808594 115.683594 197.875 115.671875 197.941406 115.660156 C 198.472656 115.578125 198.972656 115.4375 199.484375 115.269531 C 199.625 115.222656 199.765625 115.179688 199.902344 115.132812 L 199.964844 115.117188 L 200.074219 115.082031 C 201.210938 114.730469 202.289062 113.929688 203.351562 113.144531 C 203.554688 112.996094 203.753906 112.84375 203.957031 112.699219 C 204.007812 112.660156 204.0625 112.621094 204.109375 112.582031 C 204.121094 112.535156 204.128906 112.511719 204.140625 112.492188 C 204.152344 112.476562 204.171875 112.460938 204.210938 112.4375 C 204.984375 111.910156 205.640625 110.832031 206.011719 110.03125 C 206.09375 109.855469 206.15625 109.683594 206.210938 109.5 C 206.230469 109.4375 206.25 109.371094 206.269531 109.308594 C 206.59375 108.296875 206.636719 107.0625 206.265625 106.054688 C 206.230469 105.960938 206.199219 105.867188 206.171875 105.769531 L 206.152344 105.671875 L 206.09375 105.671875 C 206.09375 105.539062 206.09375 105.539062 205.832031 104.972656 L 205.773438 104.972656 C 205.773438 104.878906 205.75 104.824219 205.714844 104.738281 L 205.65625 104.738281 C 205.464844 104.164062 204.839844 103.445312 204.34375 102.988281 L 204.285156 102.988281 C 204.285156 102.863281 204.019531 102.644531 203.828125 102.484375 C 203.769531 102.4375 203.71875 102.394531 203.683594 102.363281 L 203.632812 102.316406 C 203.578125 102.269531 203.527344 102.230469 203.464844 102.199219 C 201.570312 100.746094 200.753906 100.160156 198.765625 99.476562 L 198.6875 99.449219 C 198.527344 99.394531 198.367188 99.335938 198.207031 99.277344 C 197.722656 99.101562 197.230469 98.921875 196.742188 98.859375 L 196.648438 98.851562 C 196.648438 98.828125 193.375 98.089844 190.582031 98.085938 Z M 192.914062 105.433594 L 192.804688 105.378906 C 191.773438 104.871094 190.035156 104.734375 188.949219 105.160156 C 188.851562 105.195312 188.804688 105.214844 188.753906 105.226562 C 188.707031 105.242188 188.65625 105.253906 188.558594 105.277344 L 188.488281 105.292969 L 188.488281 105.351562 L 188.257812 105.378906 L 188.257812 105.4375 C 188.207031 105.4375 188.183594 105.4375 188.164062 105.445312 C 188.148438 105.449219 188.132812 105.453125 188.109375 105.46875 L 188.042969 105.507812 L 187.972656 105.546875 L 187.90625 105.585938 C 187.855469 105.613281 187.835938 105.625 187.8125 105.636719 C 187.800781 105.644531 187.785156 105.65625 187.761719 105.671875 L 187.730469 105.757812 C 187.671875 105.757812 187.640625 105.757812 187.613281 105.769531 C 187.589844 105.777344 187.570312 105.789062 187.527344 105.816406 L 187.5 105.90625 L 187.441406 105.90625 C 187.410156 105.929688 187.394531 105.945312 187.382812 105.957031 C 187.367188 105.972656 187.351562 105.988281 187.324219 106.023438 L 187.292969 106.109375 L 187.234375 106.136719 L 187.234375 106.195312 L 187.175781 106.195312 C 186.90625 106.492188 186.820312 106.824219 186.820312 107.21875 L 186.820312 107.308594 C 186.816406 107.558594 186.832031 107.742188 186.960938 107.960938 L 187.003906 108.035156 C 187.007812 108.042969 187.007812 108.046875 187.011719 108.054688 C 187.050781 108.15625 187.078125 108.226562 187.160156 108.296875 L 187.234375 108.355469 C 187.242188 108.363281 187.25 108.375 187.257812 108.386719 C 187.304688 108.464844 187.347656 108.523438 187.429688 108.578125 L 187.5 108.617188 C 187.585938 108.746094 187.707031 108.796875 187.847656 108.855469 L 187.90625 108.878906 L 187.90625 108.9375 C 187.996094 108.984375 188.082031 109.023438 188.179688 109.058594 L 188.257812 109.082031 L 188.257812 109.140625 C 188.363281 109.175781 188.46875 109.214844 188.578125 109.257812 C 189.019531 109.445312 189.515625 109.597656 190 109.609375 C 190.066406 109.609375 190.132812 109.609375 190.199219 109.609375 C 191.078125 109.632812 191.875 109.480469 192.6875 109.140625 L 192.6875 109.082031 L 192.917969 109.023438 L 192.917969 108.964844 L 193.09375 108.9375 L 193.09375 108.878906 L 193.210938 108.847656 L 193.210938 108.792969 C 193.285156 108.777344 193.335938 108.757812 193.402344 108.714844 L 193.480469 108.660156 C 193.523438 108.632812 193.542969 108.617188 193.5625 108.605469 C 193.578125 108.59375 193.59375 108.578125 193.617188 108.558594 L 193.617188 108.5 L 193.734375 108.46875 L 193.734375 108.414062 L 193.792969 108.414062 L 193.792969 108.355469 L 193.84375 108.347656 C 193.875 108.335938 193.894531 108.332031 193.910156 108.320312 C 193.941406 108.300781 193.964844 108.269531 194.027344 108.179688 C 194.054688 108.128906 194.085938 108.082031 194.113281 108.035156 C 194.140625 108.019531 194.160156 108.011719 194.175781 107.996094 C 194.214844 107.964844 194.238281 107.914062 194.316406 107.742188 C 194.453125 107.359375 194.4375 106.980469 194.289062 106.605469 L 194.230469 106.605469 C 194.230469 106.480469 194.222656 106.457031 194.144531 106.371094 L 194.085938 106.371094 C 194.074219 106.289062 194.054688 106.253906 194 106.195312 L 193.925781 106.128906 C 193.824219 106.042969 193.726562 105.960938 193.621094 105.878906 C 193.582031 105.851562 193.542969 105.820312 193.503906 105.789062 C 193.445312 105.730469 193.417969 105.703125 193.339844 105.671875 L 193.269531 105.644531 C 193.25 105.625 193.238281 105.613281 193.222656 105.601562 C 193.179688 105.5625 193.128906 105.539062 192.914062 105.433594 Z M 192.914062 105.433594 " fill-opacity="1" fill-rule="evenodd"/></svg>