<svg xmlns="http://www.w3.org/2000/svg" xmlns:xlink="http://www.w3.org/1999/xlink" width="500" zoomAndPan="magnify" viewBox="0 0 375 374.999991" height="500" preserveAspectRatio="xMidYMid meet" version="1.0"><defs><clipPath id="3f69ddcb78"><path d="M 290 237 L 337.1875 237 L 337.1875 285 L 290 285 Z M 290 237 " clip-rule="nonzero"/></clipPath></defs><path fill="#0178bd" d="M 146.566406 237.546875 C 146.605469 237.546875 146.644531 237.546875 146.6875 237.546875 C 146.730469 237.546875 146.777344 237.546875 146.820312 237.546875 C 146.867188 237.546875 146.914062 237.546875 146.960938 237.546875 C 147.089844 237.546875 147.222656 237.546875 147.351562 237.546875 C 147.492188 237.546875 147.636719 237.546875 147.777344 237.546875 C 148.027344 237.546875 148.277344 237.546875 148.527344 237.546875 C 148.902344 237.546875 149.277344 237.546875 149.652344 237.546875 C 170.851562 237.539062 192.054688 237.550781 213.257812 237.554688 C 213.953125 238.59375 214.75 239.785156 216.726562 242.632812 C 210.820312 263.851562 209.066406 269.003906 205.636719 283.699219 C 205.597656 283.960938 205.597656 283.960938 205.574219 284.027344 C 205.445312 284.097656 205.351562 284.085938 205.210938 284.066406 C 205.085938 284.054688 204.957031 284.058594 204.828125 284.058594 C 204.796875 284.058594 204.765625 284.058594 204.734375 284.058594 C 204.628906 284.058594 204.527344 284.058594 204.421875 284.058594 C 204.347656 284.058594 204.273438 284.058594 204.199219 284.058594 C 204.035156 284.058594 203.871094 284.0625 203.710938 284.0625 C 203.46875 284.0625 203.226562 284.0625 202.984375 284.0625 C 202.601562 284.066406 202.21875 284.066406 201.835938 284.066406 C 201.226562 284.070312 200.621094 284.070312 200.011719 284.074219 C 199.882812 284.074219 199.753906 284.074219 199.625 284.074219 C 199.46875 284.074219 199.3125 284.074219 199.152344 284.074219 C 198.5625 284.078125 197.96875 284.078125 197.378906 284.078125 C 197.351562 284.078125 197.324219 284.078125 197.296875 284.078125 C 196.421875 284.082031 195.542969 284.085938 194.664062 284.089844 C 193.761719 284.089844 192.863281 284.09375 191.960938 284.097656 C 191.832031 284.097656 191.707031 284.097656 191.578125 284.097656 C 191.550781 284.097656 191.527344 284.097656 191.5 284.097656 C 191.097656 284.097656 190.695312 284.101562 190.292969 284.101562 C 189.886719 284.101562 189.480469 284.105469 189.074219 284.105469 C 188.835938 284.105469 188.59375 284.105469 188.351562 284.105469 C 188.171875 284.109375 187.992188 284.109375 187.8125 284.109375 C 187.742188 284.109375 187.667969 284.109375 187.59375 284.109375 C 187.496094 284.109375 187.398438 284.109375 187.296875 284.109375 C 187.257812 284.109375 187.257812 284.109375 187.210938 284.109375 C 187.019531 284.109375 186.917969 284.066406 186.773438 283.9375 C 191.5 262.699219 191.585938 262.554688 194.171875 251.171875 C 194.171875 251.144531 194.171875 251.121094 194.175781 251.09375 C 191.410156 251.089844 188.644531 251.089844 185.882812 251.089844 C 185.8125 251.09375 185.753906 251.105469 185.6875 251.125 C 185.675781 251.316406 185.613281 251.480469 185.5625 251.652344 C 181.832031 264.472656 181.832031 264.472656 177.011719 283.589844 C 176.964844 283.707031 176.941406 283.832031 176.914062 283.953125 C 176.90625 283.976562 176.898438 284.003906 176.890625 284.027344 C 176.820312 284.066406 176.777344 284.0625 176.699219 284.0625 C 176.671875 284.0625 176.644531 284.066406 176.617188 284.066406 C 170.523438 284.050781 164.429688 284.054688 158.335938 284.066406 C 158.230469 284.070312 158.125 284.070312 158.023438 284.066406 C 157.992188 284.066406 157.960938 284.070312 157.929688 284.070312 C 157.890625 284.070312 157.890625 284.070312 157.847656 284.066406 C 157.824219 284.066406 157.800781 284.066406 157.773438 284.066406 C 157.714844 284.058594 157.714844 284.058594 157.65625 284 C 157.636719 283.503906 157.957031 282.71875 158.097656 282.167969 C 161.03125 270.644531 163.316406 262.414062 165.738281 251.652344 C 165.761719 251.652344 165.78125 251.652344 165.800781 251.652344 C 165.804688 251.613281 165.804688 251.613281 165.804688 251.578125 C 165.816406 251.386719 165.835938 251.234375 165.925781 251.0625 C 165.863281 251.078125 165.863281 251.078125 165.800781 251.09375 C 165.800781 251.074219 165.800781 251.050781 165.800781 251.03125 C 165.769531 251.042969 165.738281 251.050781 165.707031 251.0625 C 165.65625 251.066406 165.609375 251.066406 165.558594 251.066406 C 165.523438 251.066406 165.492188 251.066406 165.460938 251.066406 C 162.550781 251.070312 159.636719 251.085938 156.726562 251.09375 C 156.710938 251.136719 156.695312 251.179688 156.679688 251.226562 C 156.671875 251.25 156.664062 251.273438 156.65625 251.300781 C 156.550781 251.617188 156.550781 251.617188 156.488281 251.949219 C 156.476562 252.050781 156.453125 252.113281 156.414062 252.207031 C 153.296875 262.359375 153.027344 264.472656 148.316406 283.769531 C 148.3125 283.792969 148.308594 283.820312 148.304688 283.84375 C 148.300781 283.863281 148.296875 283.886719 148.292969 283.90625 C 148.253906 284.003906 148.203125 284.035156 148.113281 284.089844 C 148.007812 284.109375 147.90625 284.109375 147.796875 284.105469 C 147.765625 284.105469 147.734375 284.105469 147.699219 284.105469 C 147.589844 284.105469 147.484375 284.105469 147.375 284.105469 C 147.296875 284.105469 147.21875 284.105469 147.136719 284.105469 C 141.40625 284.105469 135.671875 284.089844 129.9375 284.070312 C 129.863281 284.070312 129.785156 284.070312 129.710938 284.070312 C 129.605469 284.070312 129.503906 284.070312 129.398438 284.070312 C 129.367188 284.070312 129.339844 284.070312 129.308594 284.070312 C 129.28125 284.070312 129.253906 284.070312 129.222656 284.070312 C 129.1875 284.066406 129.1875 284.066406 129.152344 284.066406 C 129.09375 284.058594 129.09375 284.058594 129.03125 284 C 129.015625 283.835938 129.046875 283.660156 129.09375 283.503906 C 129.117188 283.492188 129.136719 283.480469 129.15625 283.472656 C 129.167969 283.410156 129.179688 283.347656 129.1875 283.285156 C 129.207031 283.210938 129.226562 283.132812 129.246094 283.058594 C 131.984375 272.394531 133.484375 268.589844 139.914062 242.890625 C 139.949219 242.757812 140.140625 242.542969 140.457031 242.300781 C 143.769531 239.785156 143.769531 239.785156 145.933594 237.90625 C 146.007812 237.832031 146.007812 237.832031 146.101562 237.832031 C 146.101562 237.800781 146.101562 237.769531 146.101562 237.738281 C 146.148438 237.722656 146.148438 237.722656 146.195312 237.707031 C 146.226562 237.679688 146.257812 237.648438 146.285156 237.617188 C 146.394531 237.542969 146.4375 237.546875 146.566406 237.546875 Z M 146.566406 237.546875 " fill-opacity="1" fill-rule="nonzero"/><g clip-path="url(#3f69ddcb78)"><path fill="#0178bd" d="M 303.738281 237.554688 C 305.460938 237.554688 307.183594 237.550781 308.90625 237.550781 C 308.945312 237.550781 308.945312 237.550781 308.984375 237.550781 C 309.539062 237.550781 310.09375 237.550781 310.644531 237.550781 C 310.917969 237.550781 311.191406 237.550781 311.460938 237.550781 C 311.503906 237.550781 311.503906 237.550781 311.542969 237.550781 C 312.417969 237.550781 313.296875 237.550781 314.171875 237.550781 C 315.074219 237.546875 315.976562 237.546875 316.875 237.546875 C 317 237.546875 317.128906 237.546875 317.257812 237.546875 C 317.28125 237.546875 317.304688 237.546875 317.332031 237.546875 C 317.734375 237.546875 318.140625 237.546875 318.542969 237.546875 C 318.949219 237.546875 319.351562 237.546875 319.757812 237.546875 C 319.996094 237.546875 320.238281 237.546875 320.480469 237.546875 C 320.660156 237.546875 320.839844 237.546875 321.019531 237.546875 C 321.09375 237.546875 321.164062 237.546875 321.238281 237.546875 C 321.335938 237.546875 321.433594 237.546875 321.53125 237.546875 C 321.574219 237.546875 321.574219 237.546875 321.621094 237.546875 C 321.648438 237.546875 321.671875 237.546875 321.699219 237.546875 C 321.734375 237.546875 321.734375 237.546875 321.769531 237.546875 C 321.828125 237.554688 321.828125 237.554688 321.917969 237.617188 C 321.941406 237.792969 321.90625 237.925781 321.847656 238.09375 C 321.820312 238.203125 321.8125 238.308594 321.804688 238.421875 C 321.796875 238.484375 321.796875 238.484375 321.734375 238.546875 C 321.734375 238.597656 321.734375 238.597656 321.734375 238.648438 C 321.734375 238.777344 321.707031 238.8125 321.640625 238.917969 C 318.863281 248 316.605469 258.460938 314.496094 268.164062 C 314.488281 268.203125 314.480469 268.242188 314.472656 268.28125 C 314.445312 268.378906 314.445312 268.378906 314.484375 268.445312 C 314.464844 268.457031 314.445312 268.464844 314.421875 268.476562 C 314.402344 268.542969 314.402344 268.542969 314.390625 268.625 C 314.382812 268.652344 314.378906 268.679688 314.371094 268.707031 C 314.359375 268.792969 314.359375 268.792969 314.363281 268.910156 C 314.339844 268.917969 314.320312 268.929688 314.300781 268.941406 C 314.289062 269.011719 314.289062 269.011719 314.285156 269.09375 C 314.277344 269.242188 314.277344 269.242188 314.207031 269.3125 C 314.199219 269.375 314.1875 269.4375 314.183594 269.5 C 314.175781 269.558594 314.175781 269.558594 314.144531 269.652344 C 335.109375 269.617188 337.148438 269.617188 337.070312 269.9375 C 336.253906 273.257812 335.109375 276.820312 333.304688 284.003906 C 333.1875 284.089844 333.082031 284.078125 332.941406 284.078125 C 332.910156 284.078125 332.882812 284.078125 332.851562 284.078125 C 332.75 284.078125 332.652344 284.078125 332.554688 284.078125 C 332.480469 284.078125 332.410156 284.078125 332.335938 284.078125 C 332.160156 284.078125 331.980469 284.078125 331.800781 284.078125 C 331.585938 284.074219 331.371094 284.078125 331.15625 284.078125 C 330.753906 284.078125 330.351562 284.078125 329.953125 284.078125 C 318.054688 284.0625 306.160156 284.066406 294.265625 284.066406 C 293.867188 284.066406 293.464844 284.066406 293.066406 284.066406 C 292.855469 284.066406 292.640625 284.066406 292.425781 284.066406 C 292.230469 284.066406 292.035156 284.066406 291.84375 284.066406 C 291.773438 284.066406 291.703125 284.066406 291.632812 284.066406 C 291.539062 284.066406 291.445312 284.066406 291.351562 284.066406 C 291.324219 284.066406 291.292969 284.066406 291.265625 284.066406 C 291.160156 284.066406 291.074219 284.0625 290.976562 284.03125 C 290.976562 283.949219 290.976562 283.867188 290.976562 283.78125 C 290.996094 283.773438 291.015625 283.761719 291.035156 283.75 C 291.066406 283.667969 291.089844 283.589844 291.113281 283.503906 C 291.125 283.46875 291.125 283.46875 291.136719 283.433594 C 291.183594 283.261719 291.222656 283.089844 291.253906 282.914062 C 291.273438 282.914062 291.292969 282.914062 291.316406 282.914062 C 291.316406 282.878906 291.316406 282.839844 291.316406 282.804688 C 291.3125 281.910156 294.265625 271.675781 303.179688 238.605469 C 303.191406 238.5625 303.199219 238.515625 303.207031 238.472656 C 303.210938 238.441406 303.21875 238.414062 303.226562 238.386719 C 303.230469 238.355469 303.234375 238.328125 303.242188 238.296875 C 303.25 238.242188 303.265625 238.1875 303.273438 238.132812 C 303.28125 238.089844 303.28125 238.089844 303.289062 238.050781 C 303.316406 237.925781 303.339844 237.800781 303.363281 237.679688 C 303.484375 237.640625 303.578125 237.617188 303.707031 237.617188 C 303.71875 237.59375 303.726562 237.574219 303.738281 237.554688 Z M 303.738281 237.554688 " fill-opacity="1" fill-rule="nonzero"/></g><path fill="#0178bd" d="M 75.921875 255.054688 C 75.972656 255.054688 75.972656 255.054688 76.023438 255.054688 C 76.082031 255.054688 76.082031 255.054688 76.136719 255.054688 C 76.175781 255.054688 76.214844 255.054688 76.257812 255.054688 C 76.367188 255.054688 76.476562 255.054688 76.585938 255.054688 C 84.015625 255.058594 91.445312 255.039062 98.875 255.054688 C 98.90625 255.054688 98.933594 255.054688 98.964844 255.054688 C 99.050781 255.058594 99.050781 255.058594 99.148438 255.074219 C 99.234375 255.09375 99.234375 255.09375 99.332031 255.070312 C 99.421875 255.058594 99.421875 255.058594 99.492188 255.082031 C 99.542969 255.121094 99.542969 255.121094 99.574219 255.214844 C 99.550781 255.230469 99.527344 255.246094 99.503906 255.265625 C 93.40625 259.816406 87.386719 264.65625 81.09375 268.921875 C 81.042969 268.957031 80.992188 268.992188 80.945312 269.03125 C 80.828125 269.121094 80.703125 269.199219 80.578125 269.28125 C 80.5 269.339844 80.457031 269.386719 80.402344 269.464844 C 80.417969 269.464844 80.4375 269.464844 80.457031 269.464844 C 87.234375 269.460938 94.015625 269.433594 100.792969 269.453125 C 100.828125 269.453125 100.859375 269.453125 100.894531 269.453125 C 100.921875 269.453125 100.953125 269.453125 100.984375 269.453125 C 101.007812 269.453125 101.035156 269.453125 101.0625 269.453125 C 101.09375 269.460938 101.09375 269.460938 101.125 269.464844 C 99.535156 276.816406 99.535156 276.816406 97.71875 283.9375 C 97.6875 283.945312 97.65625 283.957031 97.625 283.964844 C 97.605469 283.996094 97.582031 284.027344 97.5625 284.058594 C 97.503906 284.070312 97.503906 284.070312 97.429688 284.070312 C 97.402344 284.070312 97.375 284.070312 97.34375 284.070312 C 97.3125 284.070312 97.28125 284.070312 97.25 284.070312 C 97.199219 284.070312 97.199219 284.070312 97.148438 284.070312 C 97.035156 284.070312 96.925781 284.070312 96.8125 284.070312 C 81.230469 284.085938 65.652344 284.066406 50.074219 284.0625 C 50.015625 284.058594 50.015625 284.058594 49.953125 284.027344 C 52.214844 272.703125 51.890625 274.117188 52.910156 269.777344 C 52.929688 269.582031 53.46875 269.242188 54.039062 268.878906 C 73.820312 256.242188 62.503906 263.445312 75.527344 255.160156 C 75.644531 255.046875 75.769531 255.054688 75.921875 255.054688 Z M 75.921875 255.054688 " fill-opacity="1" fill-rule="nonzero"/><path fill="#0178bd" d="M 135.289062 237.554688 C 135.28125 237.566406 135.269531 237.574219 135.257812 237.585938 C 135.308594 237.59375 135.359375 237.605469 135.414062 237.617188 C 135.453125 237.730469 135.433594 237.789062 135.402344 237.910156 C 135.394531 237.945312 135.386719 237.980469 135.378906 238.015625 C 135.355469 238.097656 135.328125 238.160156 135.289062 238.234375 C 129.367188 260.359375 129.367188 260.359375 123.363281 282.792969 C 123.355469 282.820312 123.34375 282.851562 123.332031 282.882812 C 123.308594 282.96875 123.292969 283.054688 123.273438 283.144531 C 123.253906 283.222656 123.234375 283.300781 123.210938 283.378906 C 123.183594 283.460938 123.164062 283.539062 123.148438 283.625 C 123.089844 283.941406 123.089844 283.941406 122.96875 284.050781 C 122.890625 284.097656 122.847656 284.105469 122.757812 284.105469 C 122.730469 284.105469 122.703125 284.105469 122.675781 284.105469 C 122.644531 284.105469 122.613281 284.105469 122.582031 284.105469 C 122.546875 284.105469 122.515625 284.105469 122.480469 284.105469 C 122.371094 284.105469 122.261719 284.101562 122.148438 284.101562 C 116.222656 284.097656 110.292969 284.085938 104.367188 284.066406 C 104.289062 284.066406 104.210938 284.066406 104.132812 284.066406 C 104.027344 284.066406 103.921875 284.066406 103.816406 284.066406 C 103.769531 284.066406 103.769531 284.066406 103.722656 284.066406 C 103.691406 284.066406 103.664062 284.066406 103.636719 284.066406 C 103.613281 284.066406 103.589844 284.066406 103.5625 284.066406 C 103.507812 284.0625 103.507812 284.0625 103.476562 284.03125 C 103.464844 283.832031 103.480469 283.636719 103.507812 283.441406 C 103.507812 283.421875 103.507812 283.402344 103.507812 283.378906 C 103.523438 283.367188 103.535156 283.355469 103.550781 283.34375 C 103.625 283.257812 103.640625 283.160156 103.664062 283.050781 C 103.671875 283.019531 103.671875 283.019531 103.679688 282.984375 C 107.179688 268.089844 112.066406 253.023438 115.671875 238.21875 C 115.714844 238.054688 115.761719 237.902344 115.824219 237.746094 C 115.839844 237.710938 115.851562 237.671875 115.867188 237.636719 C 115.878906 237.609375 115.886719 237.582031 115.898438 237.554688 C 122.054688 237.542969 128.210938 237.527344 134.367188 237.519531 C 134.445312 237.519531 134.523438 237.519531 134.601562 237.519531 C 134.707031 237.519531 134.8125 237.519531 134.917969 237.519531 C 134.949219 237.519531 134.980469 237.519531 135.011719 237.519531 C 135.039062 237.519531 135.066406 237.519531 135.097656 237.519531 C 135.121094 237.519531 135.144531 237.519531 135.167969 237.519531 C 135.226562 237.523438 135.226562 237.523438 135.289062 237.554688 Z M 135.289062 237.554688 " fill-opacity="1" fill-rule="nonzero"/><path fill="#0178bd" d="M 278.589844 237.542969 C 278.617188 237.539062 278.644531 237.539062 278.671875 237.539062 C 278.714844 237.539062 278.714844 237.539062 278.761719 237.542969 C 278.792969 237.542969 278.820312 237.542969 278.855469 237.539062 C 278.960938 237.539062 279.066406 237.542969 279.167969 237.542969 C 279.246094 237.542969 279.320312 237.542969 279.394531 237.542969 C 285.199219 237.535156 290.996094 237.546875 296.800781 237.550781 C 287.789062 271.675781 286.863281 275.320312 284.625 283.492188 C 284.609375 283.59375 284.59375 283.695312 284.585938 283.804688 C 284.558594 283.9375 284.519531 283.976562 284.410156 284.058594 C 284.308594 284.082031 284.207031 284.082031 284.101562 284.078125 C 284.074219 284.078125 284.039062 284.078125 284.007812 284.082031 C 278.007812 284.113281 272.011719 284.089844 266.011719 284.089844 C 265.949219 283.980469 265.941406 283.90625 265.949219 283.78125 C 265.96875 283.769531 265.988281 283.761719 266.011719 283.75 C 266.015625 283.691406 266.023438 283.628906 266.03125 283.570312 C 266.042969 283.484375 266.074219 283.410156 266.105469 283.332031 C 271.363281 268.445312 272.980469 253.054688 278.253906 238.054688 C 278.289062 237.945312 278.316406 237.832031 278.34375 237.71875 C 278.390625 237.585938 278.453125 237.542969 278.589844 237.542969 Z M 278.589844 237.542969 " fill-opacity="1" fill-rule="nonzero"/><path fill="#0178bd" d="M 45.519531 237.554688 C 66.84375 237.554688 88.167969 237.554688 110.136719 237.554688 C 110.136719 237.574219 110.136719 237.59375 110.136719 237.617188 C 110.15625 237.609375 110.171875 237.601562 110.191406 237.597656 C 110.261719 237.585938 110.261719 237.585938 110.328125 237.605469 C 110.386719 237.648438 110.386719 237.648438 110.414062 237.710938 C 110.414062 237.808594 110.402344 237.832031 110.359375 237.910156 C 110.285156 238.054688 110.25 238.199219 110.210938 238.359375 C 109.289062 242.335938 108.257812 246.992188 106.574219 250.558594 C 106.535156 250.652344 106.515625 250.746094 106.496094 250.84375 C 106.480469 250.914062 106.457031 250.96875 106.421875 251.03125 C 106.347656 251.066406 106.304688 251.066406 106.222656 251.066406 C 106.195312 251.066406 106.167969 251.066406 106.136719 251.066406 C 106.105469 251.066406 106.074219 251.066406 106.042969 251.066406 C 105.992188 251.066406 105.992188 251.066406 105.941406 251.066406 C 105.828125 251.066406 105.714844 251.066406 105.601562 251.066406 C 105.519531 251.066406 105.4375 251.066406 105.355469 251.066406 C 89.796875 251.085938 74.234375 251.109375 58.675781 251.097656 C 58.628906 251.097656 58.628906 251.097656 58.582031 251.097656 C 58.292969 251.097656 58.292969 251.097656 58.160156 251.0625 C 58.109375 250.992188 58.109375 250.992188 58.066406 250.90625 C 57.980469 250.8125 57.90625 250.738281 57.789062 250.691406 C 57.789062 250.660156 57.789062 250.628906 57.789062 250.597656 C 54.828125 250.402344 48.332031 240.398438 45.863281 238.375 C 45.796875 238.320312 45.742188 238.269531 45.6875 238.203125 C 45.644531 238.132812 45.644531 238.132812 45.550781 238.082031 C 45.4375 237.972656 45.335938 237.863281 45.242188 237.738281 C 45.242188 237.710938 45.242188 237.679688 45.242188 237.648438 C 45.328125 237.628906 45.402344 237.617188 45.488281 237.617188 C 45.5 237.59375 45.511719 237.574219 45.519531 237.554688 Z M 45.519531 237.554688 " fill-opacity="1" fill-rule="nonzero"/><path fill="#0178bd" d="M 241.910156 237.636719 C 237.492188 237.640625 233.070312 237.644531 228.652344 237.648438 C 226.066406 239.785156 225.328125 240.378906 223.671875 241.710938 C 223.441406 241.863281 223.378906 242.042969 223.308594 242.304688 C 220.730469 252.316406 220.058594 254.671875 214.601562 273.808594 C 213.761719 276.765625 212.804688 280.121094 211.707031 283.96875 C 211.757812 284.03125 211.785156 284.058594 211.863281 284.074219 L 212.109375 284.074219 C 218.261719 284.097656 224.417969 284.097656 230.570312 284.074219 L 230.742188 284.074219 C 230.78125 284.074219 230.800781 284.074219 230.816406 284.070312 C 230.832031 284.070312 230.851562 284.066406 230.882812 284.0625 C 230.957031 284.015625 230.996094 283.988281 231.03125 283.90625 C 232.464844 278.050781 232.558594 277.632812 232.992188 275.683594 C 233.238281 274.589844 233.589844 273.011719 234.351562 269.714844 C 234.378906 269.679688 234.394531 269.664062 234.414062 269.65625 C 234.429688 269.648438 234.449219 269.648438 234.484375 269.648438 L 234.578125 269.648438 L 234.683594 269.644531 C 236.785156 269.65625 238.882812 269.65625 240.984375 269.652344 C 242.148438 269.652344 243.316406 269.652344 244.480469 269.65625 L 244.46875 269.710938 L 244.449219 269.789062 C 243.804688 272.792969 243.054688 275.785156 242.3125 278.777344 C 241.90625 280.402344 241.5 282.023438 241.113281 283.644531 L 241.109375 283.652344 C 241.082031 283.777344 241.054688 283.878906 241.105469 284 C 241.222656 284.097656 241.328125 284.105469 241.476562 284.105469 L 241.5625 284.105469 C 244.074219 284.113281 246.839844 284.09375 249.839844 284.074219 C 252.933594 284.050781 256.273438 284.027344 259.84375 284.03125 L 259.84375 283.9375 C 259.84375 283.890625 259.839844 283.867188 259.84375 283.84375 C 259.847656 283.824219 259.855469 283.800781 259.867188 283.757812 C 259.894531 283.679688 259.910156 283.605469 259.925781 283.527344 L 259.933594 283.488281 C 259.964844 283.335938 259.992188 283.195312 260.066406 283.058594 C 263.179688 270.972656 264.960938 264.195312 266.460938 258.496094 C 267.847656 253.222656 268.988281 248.878906 270.71875 242.109375 C 270.777344 241.933594 270.78125 241.824219 270.75 241.644531 C 270.671875 241.621094 270.671875 241.621094 270.59375 241.582031 C 269.273438 239.785156 268.507812 238.832031 267.6875 237.832031 L 267.632812 237.761719 C 267.601562 237.726562 267.589844 237.710938 267.574219 237.695312 C 267.5625 237.683594 267.550781 237.671875 267.527344 237.648438 L 267.433594 237.648438 L 267.433594 237.585938 C 267.328125 237.613281 267.234375 237.621094 267.125 237.621094 L 266.058594 237.621094 C 258.007812 237.621094 249.960938 237.628906 241.910156 237.636719 Z M 240.0625 250.496094 L 239.945312 250.496094 C 239.707031 250.492188 239.5 250.503906 239.277344 250.601562 L 239.253906 250.613281 C 239.15625 250.664062 239.101562 250.695312 239.0625 250.808594 L 239.058594 250.878906 L 238.996094 250.878906 C 238.210938 253.714844 237.671875 256.605469 236.976562 259.464844 C 236.84375 259.992188 236.855469 260.25 237.171875 260.648438 C 237.371094 260.820312 237.605469 260.84375 237.855469 260.839844 C 240.621094 260.851562 243.390625 260.847656 246.15625 260.835938 L 246.269531 260.835938 C 247.113281 260.839844 247.214844 260.414062 247.441406 259.597656 C 248.144531 257.023438 248.796875 254.429688 249.578125 251.875 C 249.914062 250.773438 249.398438 250.625 249.21875 250.570312 C 248.894531 250.46875 248.554688 250.5 248.21875 250.5 C 245.5 250.503906 242.78125 250.488281 240.0625 250.496094 Z M 240.0625 250.496094 " fill-opacity="1" fill-rule="evenodd"/><path fill="#0178bd" d="M 336.375 297.585938 L 336.109375 307.394531 L 333.605469 307.394531 L 333.332031 297.585938 Z M 334.855469 311.773438 C 334.40625 311.773438 334.015625 311.613281 333.695312 311.296875 C 333.371094 310.972656 333.210938 310.585938 333.214844 310.132812 C 333.210938 309.6875 333.371094 309.300781 333.695312 308.984375 C 334.015625 308.664062 334.40625 308.503906 334.855469 308.503906 C 335.289062 308.503906 335.671875 308.664062 336 308.984375 C 336.328125 309.300781 336.492188 309.6875 336.496094 310.132812 C 336.492188 310.433594 336.414062 310.710938 336.257812 310.960938 C 336.109375 311.207031 335.910156 311.40625 335.664062 311.554688 C 335.417969 311.703125 335.148438 311.773438 334.855469 311.773438 Z M 334.855469 311.773438 " fill-opacity="1" fill-rule="nonzero"/><path fill="#0178bd" d="M 299.199219 311.597656 L 299.199219 297.585938 L 308.640625 297.585938 L 308.640625 300.027344 L 302.164062 300.027344 L 302.164062 303.367188 L 308.15625 303.367188 L 308.15625 305.808594 L 302.164062 305.808594 L 302.164062 309.15625 L 308.667969 309.15625 L 308.667969 311.597656 Z M 299.199219 311.597656 " fill-opacity="1" fill-rule="nonzero"/><path fill="#0178bd" d="M 278.398438 297.585938 L 281.785156 308.230469 L 281.917969 308.230469 L 285.3125 297.585938 L 288.59375 297.585938 L 283.765625 311.597656 L 279.949219 311.597656 L 275.109375 297.585938 Z M 278.398438 297.585938 " fill-opacity="1" fill-rule="nonzero"/><path fill="#0178bd" d="M 261.550781 297.585938 L 264.515625 297.585938 L 264.515625 311.597656 L 261.550781 311.597656 Z M 261.550781 297.585938 " fill-opacity="1" fill-rule="nonzero"/><path fill="#0178bd" d="M 239.230469 300.027344 L 239.230469 297.585938 L 250.738281 297.585938 L 250.738281 300.027344 L 246.449219 300.027344 L 246.449219 311.597656 L 243.519531 311.597656 L 243.519531 300.027344 Z M 239.230469 300.027344 " fill-opacity="1" fill-rule="nonzero"/><path fill="#0178bd" d="M 228.722656 302.492188 L 225.726562 302.492188 C 225.671875 302.105469 225.558594 301.757812 225.390625 301.457031 C 225.222656 301.152344 225.003906 300.894531 224.742188 300.679688 C 224.476562 300.464844 224.171875 300.300781 223.824219 300.1875 C 223.480469 300.070312 223.109375 300.015625 222.710938 300.015625 C 221.984375 300.015625 221.351562 300.195312 220.8125 300.554688 C 220.277344 300.910156 219.859375 301.429688 219.5625 302.113281 C 219.265625 302.792969 219.117188 303.621094 219.117188 304.589844 C 219.117188 305.589844 219.265625 306.429688 219.5625 307.109375 C 219.863281 307.789062 220.28125 308.300781 220.820312 308.648438 C 221.359375 308.996094 221.980469 309.167969 222.6875 309.167969 C 223.085938 309.167969 223.453125 309.117188 223.789062 309.011719 C 224.132812 308.90625 224.4375 308.753906 224.699219 308.554688 C 224.964844 308.347656 225.183594 308.097656 225.355469 307.808594 C 225.535156 307.515625 225.65625 307.183594 225.726562 306.808594 L 228.722656 306.820312 C 228.644531 307.464844 228.453125 308.085938 228.140625 308.683594 C 227.835938 309.277344 227.421875 309.808594 226.902344 310.277344 C 226.386719 310.742188 225.773438 311.113281 225.054688 311.386719 C 224.34375 311.65625 223.539062 311.789062 222.640625 311.789062 C 221.390625 311.789062 220.273438 311.507812 219.289062 310.941406 C 218.308594 310.375 217.53125 309.554688 216.960938 308.484375 C 216.398438 307.414062 216.113281 306.113281 216.113281 304.589844 C 216.113281 303.0625 216.402344 301.765625 216.976562 300.691406 C 217.550781 299.621094 218.332031 298.804688 219.316406 298.242188 C 220.300781 297.675781 221.410156 297.394531 222.640625 297.394531 C 223.453125 297.394531 224.207031 297.507812 224.898438 297.734375 C 225.597656 297.964844 226.214844 298.296875 226.753906 298.734375 C 227.289062 299.167969 227.730469 299.699219 228.066406 300.328125 C 228.410156 300.957031 228.628906 301.679688 228.722656 302.492188 Z M 228.722656 302.492188 " fill-opacity="1" fill-rule="nonzero"/><path fill="#0178bd" d="M 201.695312 297.585938 L 204.660156 297.585938 L 204.660156 306.683594 C 204.660156 307.707031 204.414062 308.601562 203.925781 309.367188 C 203.445312 310.132812 202.765625 310.730469 201.894531 311.160156 C 201.023438 311.582031 200.007812 311.796875 198.851562 311.796875 C 197.6875 311.796875 196.671875 311.582031 195.800781 311.160156 C 194.929688 310.730469 194.25 310.132812 193.765625 309.367188 C 193.285156 308.601562 193.042969 307.707031 193.042969 306.683594 L 193.042969 297.585938 L 196.003906 297.585938 L 196.003906 306.429688 C 196.003906 306.964844 196.121094 307.4375 196.351562 307.855469 C 196.589844 308.269531 196.921875 308.59375 197.351562 308.832031 C 197.78125 309.070312 198.28125 309.1875 198.851562 309.1875 C 199.425781 309.1875 199.925781 309.070312 200.347656 308.832031 C 200.777344 308.59375 201.109375 308.269531 201.339844 307.855469 C 201.578125 307.4375 201.695312 306.964844 201.695312 306.429688 Z M 201.695312 297.585938 " fill-opacity="1" fill-rule="nonzero"/><path fill="#0178bd" d="M 174.726562 311.597656 L 169.761719 311.597656 L 169.761719 297.585938 L 174.769531 297.585938 C 176.179688 297.585938 177.390625 297.867188 178.410156 298.425781 C 179.425781 298.984375 180.207031 299.785156 180.757812 300.828125 C 181.308594 301.871094 181.582031 303.121094 181.582031 304.578125 C 181.582031 306.035156 181.308594 307.292969 180.757812 308.339844 C 180.207031 309.390625 179.421875 310.195312 178.394531 310.753906 C 177.375 311.316406 176.152344 311.597656 174.726562 311.597656 Z M 172.722656 309.058594 L 174.605469 309.058594 C 175.480469 309.058594 176.21875 308.902344 176.816406 308.59375 C 177.417969 308.277344 177.867188 307.792969 178.167969 307.136719 C 178.476562 306.476562 178.628906 305.621094 178.628906 304.578125 C 178.628906 303.542969 178.476562 302.695312 178.167969 302.039062 C 177.867188 301.382812 177.417969 300.898438 176.820312 300.589844 C 176.222656 300.277344 175.488281 300.125 174.613281 300.125 L 172.722656 300.125 Z M 172.722656 309.058594 " fill-opacity="1" fill-rule="nonzero"/><path fill="#0178bd" d="M 158.304688 304.589844 C 158.304688 306.121094 158.015625 307.417969 157.4375 308.492188 C 156.863281 309.5625 156.078125 310.382812 155.082031 310.949219 C 154.09375 311.507812 152.980469 311.789062 151.742188 311.789062 C 150.5 311.789062 149.382812 311.507812 148.390625 310.941406 C 147.402344 310.375 146.621094 309.554688 146.042969 308.484375 C 145.46875 307.414062 145.183594 306.113281 145.183594 304.589844 C 145.183594 303.0625 145.46875 301.765625 146.042969 300.691406 C 146.621094 299.621094 147.402344 298.804688 148.390625 298.242188 C 149.382812 297.675781 150.5 297.394531 151.742188 297.394531 C 152.980469 297.394531 154.09375 297.675781 155.082031 298.242188 C 156.078125 298.804688 156.863281 299.621094 157.4375 300.691406 C 158.015625 301.765625 158.304688 303.0625 158.304688 304.589844 Z M 155.300781 304.589844 C 155.300781 303.601562 155.152344 302.765625 154.855469 302.085938 C 154.566406 301.40625 154.152344 300.894531 153.617188 300.542969 C 153.085938 300.191406 152.460938 300.015625 151.742188 300.015625 C 151.027344 300.015625 150.402344 300.191406 149.867188 300.542969 C 149.335938 300.894531 148.921875 301.40625 148.625 302.085938 C 148.332031 302.765625 148.1875 303.601562 148.1875 304.589844 C 148.1875 305.582031 148.332031 306.417969 148.625 307.097656 C 148.921875 307.773438 149.335938 308.289062 149.867188 308.640625 C 150.402344 308.992188 151.027344 309.167969 151.742188 309.167969 C 152.460938 309.167969 153.085938 308.992188 153.617188 308.640625 C 154.152344 308.289062 154.566406 307.773438 154.855469 307.097656 C 155.152344 306.417969 155.300781 305.582031 155.300781 304.589844 Z M 155.300781 304.589844 " fill-opacity="1" fill-rule="nonzero"/><path fill="#0178bd" d="M 123.523438 311.597656 L 123.523438 297.585938 L 129.050781 297.585938 C 130.109375 297.585938 131.011719 297.773438 131.761719 298.152344 C 132.511719 298.527344 133.085938 299.058594 133.476562 299.746094 C 133.875 300.429688 134.074219 301.234375 134.074219 302.164062 C 134.074219 303.09375 133.871094 303.894531 133.472656 304.5625 C 133.070312 305.230469 132.488281 305.742188 131.726562 306.097656 C 130.96875 306.453125 130.050781 306.628906 128.976562 306.628906 L 125.273438 306.628906 L 125.273438 304.25 L 128.496094 304.25 C 129.0625 304.25 129.53125 304.171875 129.90625 304.015625 C 130.28125 303.859375 130.558594 303.628906 130.742188 303.316406 C 130.929688 303.007812 131.023438 302.621094 131.023438 302.164062 C 131.023438 301.695312 130.929688 301.304688 130.742188 300.984375 C 130.558594 300.667969 130.277344 300.425781 129.898438 300.261719 C 129.527344 300.089844 129.054688 300.007812 128.484375 300.007812 L 126.484375 300.007812 L 126.484375 311.597656 Z M 131.089844 305.21875 L 134.574219 311.597656 L 131.300781 311.597656 L 127.894531 305.21875 Z M 131.089844 305.21875 " fill-opacity="1" fill-rule="nonzero"/><path fill="#0178bd" d="M 102.132812 311.597656 L 102.132812 297.585938 L 107.660156 297.585938 C 108.722656 297.585938 109.628906 297.789062 110.375 298.195312 C 111.125 298.59375 111.695312 299.152344 112.085938 299.871094 C 112.484375 300.582031 112.679688 301.402344 112.679688 302.332031 C 112.679688 303.261719 112.480469 304.085938 112.078125 304.796875 C 111.675781 305.507812 111.097656 306.0625 110.335938 306.457031 C 109.578125 306.855469 108.660156 307.054688 107.585938 307.054688 L 104.0625 307.054688 L 104.0625 304.679688 L 107.105469 304.679688 C 107.675781 304.679688 108.144531 304.582031 108.515625 304.386719 C 108.886719 304.183594 109.167969 303.910156 109.347656 303.558594 C 109.535156 303.203125 109.628906 302.792969 109.628906 302.332031 C 109.628906 301.867188 109.535156 301.460938 109.347656 301.117188 C 109.167969 300.765625 108.886719 300.492188 108.515625 300.300781 C 108.140625 300.105469 107.667969 300.007812 107.089844 300.007812 L 105.09375 300.007812 L 105.09375 311.597656 Z M 102.132812 311.597656 " fill-opacity="1" fill-rule="nonzero"/><path fill="#0178bd" d="M 66.324219 311.597656 L 66.324219 297.585938 L 75.765625 297.585938 L 75.765625 300.027344 L 69.289062 300.027344 L 69.289062 303.367188 L 75.28125 303.367188 L 75.28125 305.808594 L 69.289062 305.808594 L 69.289062 309.15625 L 75.792969 309.15625 L 75.792969 311.597656 Z M 66.324219 311.597656 " fill-opacity="1" fill-rule="nonzero"/><path fill="#0178bd" d="M 45.011719 311.597656 L 45.011719 297.585938 L 50.625 297.585938 C 51.65625 297.585938 52.515625 297.738281 53.203125 298.042969 C 53.890625 298.347656 54.410156 298.773438 54.757812 299.316406 C 55.101562 299.855469 55.277344 300.472656 55.277344 301.175781 C 55.277344 301.722656 55.167969 302.207031 54.949219 302.621094 C 54.730469 303.03125 54.425781 303.367188 54.042969 303.632812 C 53.664062 303.894531 53.234375 304.078125 52.746094 304.1875 L 52.746094 304.324219 C 53.277344 304.347656 53.777344 304.496094 54.242188 304.777344 C 54.710938 305.054688 55.09375 305.445312 55.386719 305.945312 C 55.675781 306.441406 55.824219 307.035156 55.824219 307.722656 C 55.824219 308.46875 55.636719 309.132812 55.269531 309.714844 C 54.902344 310.292969 54.363281 310.753906 53.648438 311.089844 C 52.929688 311.429688 52.050781 311.597656 51 311.597656 Z M 47.976562 309.175781 L 50.390625 309.175781 C 51.214844 309.175781 51.820312 309.019531 52.195312 308.703125 C 52.574219 308.382812 52.765625 307.960938 52.765625 307.429688 C 52.765625 307.042969 52.671875 306.699219 52.484375 306.402344 C 52.296875 306.109375 52.03125 305.875 51.683594 305.707031 C 51.34375 305.539062 50.933594 305.453125 50.460938 305.453125 L 47.976562 305.453125 Z M 47.976562 303.449219 L 50.171875 303.449219 C 50.578125 303.449219 50.9375 303.378906 51.253906 303.234375 C 51.574219 303.089844 51.824219 302.886719 52.003906 302.621094 C 52.191406 302.355469 52.285156 302.039062 52.285156 301.667969 C 52.285156 301.164062 52.105469 300.753906 51.746094 300.445312 C 51.390625 300.132812 50.882812 299.980469 50.226562 299.980469 L 47.976562 299.980469 Z M 47.976562 303.449219 " fill-opacity="1" fill-rule="nonzero"/><path fill="#0178bd" d="M 242.832031 109.351562 C 242.582031 108.898438 242.300781 108.285156 241.246094 107.601562 C 225.609375 97.515625 209.726562 87.636719 193.867188 77.902344 C 190.914062 76.089844 189.476562 77.207031 186.5625 79.03125 C 171.347656 88.535156 152.484375 99.589844 138.726562 108.59375 C 135.207031 110.894531 139.917969 112.222656 152.132812 118.992188 C 164.347656 125.765625 175.890625 133.085938 190.644531 141.425781 C 191.125 141.699219 191.8125 141.996094 193.050781 141.425781 C 194.289062 140.859375 195.523438 140.25 197.632812 138.847656 C 211.714844 129.476562 226.558594 121.261719 241.246094 112.867188 C 243.367188 111.65625 243.078125 109.808594 242.832031 109.351562 Z M 242.832031 109.351562 " fill-opacity="1" fill-rule="nonzero"/><path fill="#0178bd" d="M 184.167969 144.851562 C 173.722656 138.902344 145.210938 123.703125 135.898438 117.925781 C 135.039062 117.394531 134.167969 116.734375 133.542969 116.917969 C 131.972656 117.375 132.417969 118.710938 132.394531 120.753906 C 132.261719 132.234375 132.113281 164.773438 132.113281 176.234375 C 132.113281 178.335938 131.492188 178.054688 137.789062 181.816406 C 147.320312 187.503906 172.4375 202.46875 181.855469 208.027344 C 189.382812 212.46875 188.730469 208.289062 188.765625 201.691406 C 188.835938 190.214844 188.933594 161.898438 188.808594 151.09375 C 188.808594 151.09375 189.058594 148.925781 188.132812 147.679688 C 187.203125 146.429688 185.875 145.824219 184.167969 144.851562 Z M 184.167969 144.851562 " fill-opacity="1" fill-rule="nonzero"/><path fill="#0178bd" d="M 249.679688 119.285156 C 249.679688 117.367188 248.695312 116.917969 247.742188 116.972656 C 246.285156 117.058594 245.089844 118.21875 243.71875 118.996094 C 230.628906 126.4375 217.625 134.023438 204.511719 141.417969 C 201.1875 143.292969 194.070312 146.980469 194.070312 148.832031 C 194.070312 160.125 194.09375 184.898438 194.09375 203.847656 C 194.09375 205.574219 193.261719 208.96875 195.273438 209.554688 C 196.007812 209.769531 197.128906 210.078125 197.875 209.644531 C 222.222656 195.5 223.960938 194.660156 248.511719 179.582031 C 249.382812 179.046875 249.816406 177.988281 249.816406 176.820312 C 249.816406 164.761719 249.679688 131.367188 249.679688 119.285156 Z M 249.679688 119.285156 " fill-opacity="1" fill-rule="nonzero"/><path fill="#ffffff" d="M 154.148438 156.441406 C 154.753906 156.808594 155.382812 157.144531 155.992188 157.503906 C 158.839844 159.175781 161.714844 160.863281 164.59375 162.433594 C 165.738281 163.058594 166.714844 163.621094 167.78125 164.269531 C 167.882812 164.328125 167.984375 164.386719 168.085938 164.445312 C 168.285156 164.558594 168.488281 164.675781 168.6875 164.796875 C 168.871094 164.902344 169.050781 165.003906 169.234375 165.109375 C 170.113281 165.597656 170.691406 166.15625 171.007812 167.125 C 171.207031 167.863281 171.0625 168.546875 170.882812 169.265625 C 170.863281 169.339844 170.84375 169.414062 170.828125 169.488281 C 170.777344 169.6875 170.726562 169.882812 170.679688 170.082031 C 170.40625 171.15625 170.171875 172.238281 169.898438 173.3125 C 169.832031 173.585938 169.765625 173.859375 169.703125 174.132812 C 169.429688 175.347656 169.109375 176.554688 168.820312 177.765625 C 168.496094 179.101562 168.496094 179.101562 168.011719 179.425781 C 167.695312 179.617188 167.265625 179.613281 166.910156 179.535156 C 166.734375 179.484375 166.578125 179.398438 166.421875 179.308594 C 166.308594 179.242188 166.195312 179.175781 166.078125 179.113281 C 166.046875 179.09375 166.046875 179.09375 166.011719 179.074219 C 162.109375 176.808594 158.105469 174.550781 151.035156 170.207031 C 150.5 170.050781 150.085938 169.503906 149.828125 169.042969 C 149.296875 168.070312 149.386719 167.136719 149.6875 166.105469 C 149.734375 165.949219 149.773438 165.792969 149.808594 165.632812 C 150.238281 163.695312 150.730469 161.765625 151.214844 159.84375 C 151.480469 158.800781 151.628906 156.71875 152.644531 156.195312 C 153.136719 155.96875 153.722656 156.183594 154.148438 156.441406 Z M 154.148438 156.441406 " fill-opacity="1" fill-rule="nonzero"/><path fill="#ffffff" d="M 230.199219 153.179688 C 230.199219 153.199219 230.199219 153.21875 230.199219 153.238281 C 230.21875 153.242188 230.238281 153.25 230.261719 153.257812 C 230.363281 153.304688 230.417969 153.355469 230.488281 153.441406 C 230.53125 153.5625 230.511719 153.625 230.457031 153.738281 C 230.4375 153.78125 230.4375 153.78125 230.414062 153.824219 C 227.796875 159.007812 225.660156 164.472656 223.246094 169.71875 C 223.234375 169.742188 223.222656 169.769531 223.210938 169.796875 C 223.132812 169.96875 223.046875 170.140625 222.960938 170.308594 C 222.925781 170.382812 222.894531 170.457031 222.863281 170.535156 C 222.742188 170.488281 222.664062 170.398438 222.574219 170.308594 C 222.558594 170.292969 222.542969 170.277344 222.53125 170.261719 C 222.5 170.230469 222.46875 170.199219 222.441406 170.171875 C 220.179688 167.851562 220.199219 167.851562 215.179688 162.46875 C 215.050781 162.425781 215.011719 162.019531 215.066406 161.914062 C 215.222656 161.59375 215.179688 161.511719 215.65625 161.023438 C 219.90625 158.5625 224.148438 156.089844 228.429688 153.6875 C 228.460938 153.667969 228.488281 153.652344 228.519531 153.632812 C 228.578125 153.601562 228.636719 153.566406 228.699219 153.535156 C 228.738281 153.511719 228.738281 153.511719 228.777344 153.492188 C 228.800781 153.476562 228.824219 153.464844 228.847656 153.449219 C 228.914062 153.414062 228.914062 153.414062 228.972656 153.363281 C 229.027344 153.324219 229.027344 153.324219 229.144531 153.324219 C 229.144531 153.304688 229.144531 153.285156 229.144531 153.265625 C 229.535156 153.121094 229.800781 153.039062 230.199219 153.179688 Z M 230.199219 153.179688 " fill-opacity="1" fill-rule="nonzero"/><path fill="#ffffff" d="M 225.433594 166.824219 C 226.6875 168.28125 229.066406 170.714844 230.4375 172.03125 C 230.488281 172.085938 230.488281 172.085938 230.488281 172.144531 C 230.507812 172.144531 230.527344 172.144531 230.546875 172.144531 C 230.523438 172.53125 230.226562 173.140625 229.957031 173.425781 C 229.878906 173.507812 229.804688 173.589844 229.730469 173.679688 C 229.480469 173.976562 229.105469 174.175781 228.785156 174.351562 C 228.761719 174.367188 228.734375 174.378906 228.710938 174.394531 C 224.761719 176.589844 220.910156 179.011719 217.128906 181.316406 C 217.101562 181.332031 217.070312 181.351562 217.039062 181.371094 C 216.855469 181.480469 216.855469 181.480469 216.675781 181.59375 C 215.855469 182.109375 215.855469 182.109375 215.414062 182.050781 C 215.207031 181.996094 215.027344 181.894531 214.890625 181.726562 C 214.863281 181.671875 214.863281 181.671875 214.859375 181.609375 C 214.898438 181.539062 214.898438 181.539062 214.949219 181.464844 C 214.96875 181.410156 214.988281 181.355469 215.007812 181.300781 C 217.128906 176.492188 218.304688 174.058594 219.890625 170.511719 C 220.117188 170 220.117188 170 220.234375 169.777344 C 220.34375 169.8125 220.40625 169.847656 220.476562 169.9375 C 221.167969 170.667969 221.167969 170.667969 222.039062 171.570312 C 222.109375 171.652344 222.179688 171.707031 222.265625 171.769531 C 222.292969 171.789062 222.320312 171.808594 222.347656 171.828125 C 222.5625 171.972656 222.753906 171.980469 222.953125 171.820312 C 223.109375 171.640625 223.335938 171.179688 223.355469 171.179688 C 223.5625 170.664062 223.679688 170.597656 223.945312 169.96875 C 224.039062 169.742188 224.148438 169.503906 224.261719 169.285156 C 224.328125 169.15625 224.386719 169.027344 224.441406 168.890625 C 224.691406 168.25 225.015625 167.632812 225.289062 167 C 225.308594 167 225.328125 167 225.347656 167 C 225.351562 166.980469 225.355469 166.964844 225.359375 166.945312 C 225.378906 166.882812 225.378906 166.882812 225.433594 166.824219 Z M 225.433594 166.824219 " fill-opacity="1" fill-rule="nonzero"/><path fill="#ffffff" d="M 151.378906 148.269531 C 152.757812 148.976562 154.367188 149.789062 154.914062 151.335938 C 155.171875 152.0625 154.8125 153.222656 155.214844 153.835938 C 158.796875 155.773438 162.257812 157.917969 165.820312 159.886719 C 167.332031 160.71875 168.753906 162.023438 168.730469 163.917969 C 168.730469 164.167969 168.554688 164.070312 168.378906 163.960938 C 163.835938 161.109375 159.015625 158.734375 154.4375 155.949219 C 153.023438 155.089844 151.675781 155.507812 151.3125 157.101562 C 150.714844 159.738281 150.34375 160.964844 149.476562 164.429688 C 149.460938 159.519531 149.683594 154.613281 149.691406 149.703125 C 149.691406 148.734375 150.285156 147.679688 151.378906 148.269531 Z M 151.378906 148.269531 " fill-opacity="1" fill-rule="nonzero"/><path fill="#ffffff" d="M 214.394531 163.992188 C 214.765625 164.058594 215.101562 164.441406 215.375 164.691406 C 215.476562 164.78125 215.578125 164.867188 215.679688 164.957031 C 215.734375 165.007812 215.792969 165.058594 215.851562 165.109375 C 215.894531 165.144531 215.9375 165.183594 215.980469 165.21875 C 216.117188 165.335938 216.238281 165.457031 216.351562 165.597656 C 216.351562 165.617188 216.351562 165.636719 216.351562 165.65625 C 216.367188 165.660156 216.382812 165.660156 216.398438 165.664062 C 216.53125 165.710938 216.613281 165.832031 216.699219 165.9375 C 216.773438 166.019531 216.847656 166.085938 216.933594 166.15625 C 217.035156 166.25 217.125 166.351562 217.210938 166.460938 C 217.285156 166.554688 217.355469 166.636719 217.449219 166.710938 C 217.472656 166.730469 217.496094 166.75 217.519531 166.769531 C 217.519531 166.789062 217.519531 166.804688 217.519531 166.828125 C 217.535156 166.832031 217.554688 166.839844 217.570312 166.847656 C 217.75 166.949219 217.886719 167.136719 218.019531 167.292969 C 218.101562 167.382812 218.1875 167.464844 218.273438 167.550781 C 218.347656 167.628906 218.421875 167.710938 218.492188 167.792969 C 218.53125 167.835938 218.570312 167.878906 218.609375 167.917969 C 218.695312 168.003906 218.773438 168.09375 218.851562 168.183594 C 218.867188 168.203125 218.882812 168.222656 218.898438 168.238281 C 218.929688 168.277344 218.960938 168.3125 218.992188 168.351562 C 219.035156 168.402344 219.078125 168.453125 219.125 168.503906 C 219.601562 169.0625 219.601562 169.0625 219.652344 169.25 C 219.628906 169.332031 219.628906 169.332031 219.585938 169.414062 C 219.570312 169.4375 219.558594 169.464844 219.546875 169.492188 C 219.53125 169.519531 219.519531 169.546875 219.503906 169.574219 C 219.484375 169.621094 219.464844 169.671875 219.445312 169.71875 C 219.425781 169.753906 219.425781 169.753906 219.402344 169.789062 C 219.355469 169.863281 219.355469 169.863281 219.335938 169.941406 C 219.285156 170.082031 219.21875 170.207031 219.152344 170.335938 C 219.09375 170.449219 219.046875 170.5625 219.007812 170.683594 C 218.976562 170.753906 218.945312 170.824219 218.910156 170.894531 C 218.894531 170.933594 218.875 170.972656 218.855469 171.011719 C 218.847656 171.03125 218.839844 171.046875 218.828125 171.066406 C 218.746094 171.25 218.664062 171.429688 218.585938 171.617188 C 218.523438 171.769531 218.453125 171.910156 218.378906 172.058594 C 218.335938 172.144531 218.300781 172.226562 218.265625 172.316406 C 218.195312 172.488281 218.113281 172.652344 218.027344 172.816406 C 217.996094 172.886719 217.972656 172.945312 217.957031 173.019531 C 217.9375 173.019531 217.917969 173.019531 217.898438 173.019531 C 217.890625 173.058594 217.886719 173.09375 217.878906 173.132812 C 217.847656 173.28125 217.785156 173.394531 217.707031 173.523438 C 217.65625 173.621094 217.617188 173.722656 217.578125 173.824219 C 217.535156 173.929688 217.484375 174.023438 217.433594 174.125 C 217.402344 174.191406 217.371094 174.265625 217.339844 174.335938 C 217.304688 174.414062 217.265625 174.496094 217.230469 174.574219 C 217.171875 174.699219 217.117188 174.828125 217.070312 174.957031 C 217.003906 175.136719 216.917969 175.300781 216.828125 175.464844 C 216.742188 175.621094 216.675781 175.777344 216.617188 175.941406 C 216.582031 176.03125 216.542969 176.117188 216.5 176.203125 C 216.441406 176.3125 216.386719 176.429688 216.332031 176.542969 C 216.316406 176.578125 216.316406 176.578125 216.300781 176.613281 C 216.246094 176.722656 216.199219 176.832031 216.15625 176.945312 C 216.125 177.035156 216.089844 177.113281 216.046875 177.195312 C 215.996094 177.292969 215.953125 177.386719 215.914062 177.484375 C 215.863281 177.625 215.792969 177.757812 215.726562 177.890625 C 215.667969 178.003906 215.617188 178.121094 215.574219 178.242188 C 215.519531 178.394531 215.449219 178.53125 215.367188 178.671875 C 215.316406 178.769531 215.277344 178.871094 215.238281 178.972656 C 215.203125 179.058594 215.164062 179.140625 215.121094 179.222656 C 215.085938 179.296875 215.058594 179.371094 215.035156 179.449219 C 215.015625 179.449219 214.996094 179.449219 214.976562 179.449219 C 214.96875 179.476562 214.964844 179.503906 214.957031 179.53125 C 214.921875 179.660156 214.863281 179.777344 214.808594 179.898438 C 214.777344 179.960938 214.753906 180.023438 214.730469 180.089844 C 214.671875 180.253906 214.589844 180.40625 214.507812 180.5625 C 214.460938 180.550781 214.414062 180.542969 214.363281 180.53125 C 214.363281 179.070312 214.363281 177.605469 214.363281 176.144531 C 214.363281 176.058594 214.363281 175.976562 214.363281 175.890625 C 214.359375 173.355469 214.359375 170.820312 214.378906 166.753906 C 214.378906 166.71875 214.378906 166.683594 214.378906 166.644531 C 214.382812 165.761719 214.386719 164.875 214.394531 163.992188 Z M 214.394531 163.992188 " fill-opacity="1" fill-rule="nonzero"/><path fill="#ffffff" d="M 230.8125 154.699219 C 230.859375 154.695312 230.910156 154.695312 230.957031 154.699219 C 231.011719 154.753906 230.988281 154.828125 230.992188 154.902344 C 230.992188 154.9375 230.992188 154.9375 230.988281 154.976562 C 230.988281 155.003906 230.992188 155.03125 230.992188 155.058594 C 230.992188 155.148438 230.992188 155.238281 230.992188 155.328125 C 230.992188 155.394531 230.992188 155.460938 230.992188 155.523438 C 230.992188 155.703125 230.992188 155.882812 230.992188 156.0625 C 230.992188 156.238281 230.992188 156.410156 230.992188 156.582031 C 230.992188 156.984375 230.992188 157.382812 230.992188 157.78125 C 230.992188 158.089844 230.992188 158.398438 230.992188 158.707031 C 230.992188 158.792969 230.992188 158.882812 230.992188 158.972656 C 230.992188 159.003906 230.992188 159.003906 230.992188 159.039062 C 230.992188 159.65625 230.992188 160.277344 230.992188 160.894531 C 230.992188 160.929688 230.992188 160.929688 230.992188 160.96875 C 230.992188 161.085938 230.992188 161.203125 230.992188 161.324219 C 230.992188 161.347656 230.992188 161.371094 230.992188 161.394531 C 230.992188 161.441406 230.992188 161.488281 230.992188 161.535156 C 230.992188 162.277344 230.992188 163.015625 230.992188 163.757812 C 230.992188 164.589844 230.992188 165.421875 230.992188 166.253906 C 230.992188 166.339844 230.992188 166.429688 230.992188 166.519531 C 230.992188 166.539062 230.992188 166.5625 230.992188 166.582031 C 230.992188 166.933594 230.992188 167.289062 230.992188 167.640625 C 230.992188 167.992188 230.992188 168.34375 230.992188 168.699219 C 230.992188 168.890625 230.992188 169.082031 230.992188 169.273438 C 230.992188 169.449219 230.992188 169.621094 230.992188 169.796875 C 230.992188 169.863281 230.992188 169.925781 230.992188 169.988281 C 230.992188 170.074219 230.992188 170.160156 230.992188 170.246094 C 230.992188 170.285156 230.992188 170.285156 230.992188 170.320312 C 230.992188 170.527344 230.992188 170.527344 230.929688 170.625 C 230.800781 170.613281 230.726562 170.523438 230.644531 170.4375 C 230.628906 170.421875 230.613281 170.40625 230.597656 170.390625 C 230.488281 170.28125 230.488281 170.28125 230.488281 170.214844 C 230.472656 170.207031 230.457031 170.199219 230.4375 170.195312 C 230.359375 170.148438 230.308594 170.09375 230.25 170.023438 C 230.226562 169.996094 230.203125 169.972656 230.179688 169.945312 C 230.144531 169.90625 230.144531 169.90625 230.109375 169.863281 C 229.972656 169.707031 229.832031 169.554688 229.683594 169.410156 C 229.640625 169.367188 229.597656 169.324219 229.554688 169.28125 C 229.554688 169.261719 229.554688 169.242188 229.554688 169.222656 C 229.527344 169.210938 229.496094 169.203125 229.46875 169.191406 C 229.421875 169.148438 229.421875 169.148438 229.375 169.089844 C 229.359375 169.070312 229.339844 169.050781 229.324219 169.027344 C 229.300781 169.003906 229.28125 168.980469 229.261719 168.957031 C 229.214844 168.90625 229.171875 168.851562 229.125 168.800781 C 229.101562 168.773438 229.082031 168.75 229.058594 168.726562 C 229 168.660156 229 168.660156 228.910156 168.636719 C 228.878906 168.597656 228.878906 168.597656 228.839844 168.542969 C 228.753906 168.421875 228.660156 168.316406 228.558594 168.207031 C 228.546875 168.191406 228.53125 168.175781 228.515625 168.160156 C 228.445312 168.085938 228.375 168.015625 228.304688 167.941406 C 228.238281 167.878906 228.238281 167.878906 228.183594 167.804688 C 228.132812 167.742188 228.089844 167.699219 228.027344 167.648438 C 227.910156 167.550781 227.8125 167.4375 227.714844 167.320312 C 227.683594 167.285156 227.652344 167.25 227.625 167.214844 C 227.609375 167.199219 227.597656 167.183594 227.585938 167.167969 C 227.523438 167.101562 227.457031 167.035156 227.394531 166.972656 C 227.296875 166.875 227.199219 166.777344 227.101562 166.679688 C 227.078125 166.65625 227.050781 166.628906 227.027344 166.605469 C 226.960938 166.539062 226.898438 166.46875 226.835938 166.398438 C 226.734375 166.289062 226.632812 166.183594 226.527344 166.078125 C 226.40625 165.957031 226.296875 165.832031 226.191406 165.691406 C 226.128906 165.621094 226.066406 165.566406 225.992188 165.511719 C 226.035156 165.222656 226.191406 164.953125 226.332031 164.703125 C 226.378906 164.613281 226.40625 164.527344 226.429688 164.429688 C 226.449219 164.429688 226.46875 164.429688 226.488281 164.429688 C 226.488281 164.394531 226.488281 164.394531 226.492188 164.359375 C 226.519531 164.238281 226.566406 164.148438 226.625 164.039062 C 226.660156 163.964844 226.691406 163.886719 226.722656 163.808594 C 226.761719 163.707031 226.808594 163.617188 226.867188 163.523438 C 226.921875 163.414062 226.960938 163.300781 227.003906 163.1875 C 227.066406 163.023438 227.144531 162.863281 227.21875 162.703125 C 227.289062 162.554688 227.355469 162.402344 227.417969 162.246094 C 227.46875 162.113281 227.53125 161.988281 227.597656 161.859375 C 227.679688 161.699219 227.753906 161.535156 227.820312 161.367188 C 227.867188 161.253906 227.917969 161.136719 227.96875 161.023438 C 227.980469 161.003906 227.988281 160.980469 228 160.957031 C 228.054688 160.835938 228.105469 160.71875 228.160156 160.597656 C 228.183594 160.546875 228.207031 160.496094 228.230469 160.449219 C 228.242188 160.421875 228.25 160.398438 228.261719 160.375 C 228.355469 160.167969 228.445312 159.960938 228.53125 159.753906 C 228.550781 159.753906 228.570312 159.753906 228.589844 159.753906 C 228.59375 159.722656 228.597656 159.6875 228.601562 159.65625 C 228.621094 159.550781 228.621094 159.550781 228.679688 159.492188 C 228.738281 159.363281 228.785156 159.234375 228.835938 159.101562 C 228.917969 158.886719 229.007812 158.679688 229.121094 158.476562 C 229.199219 158.332031 229.261719 158.183594 229.316406 158.027344 C 229.359375 157.921875 229.410156 157.820312 229.460938 157.71875 C 229.507812 157.628906 229.542969 157.53125 229.582031 157.4375 C 229.628906 157.320312 229.679688 157.207031 229.730469 157.09375 C 229.742188 157.070312 229.75 157.050781 229.761719 157.027344 C 230.121094 156.214844 230.121094 156.214844 230.261719 155.945312 C 230.316406 155.839844 230.359375 155.726562 230.402344 155.617188 C 230.429688 155.550781 230.457031 155.492188 230.488281 155.429688 C 230.546875 155.320312 230.589844 155.207031 230.636719 155.09375 C 230.6875 154.960938 230.746094 154.828125 230.8125 154.699219 Z M 230.8125 154.699219 " fill-opacity="1" fill-rule="nonzero"/><path fill="#ffffff" d="M 190.75 98.148438 L 190.542969 98.148438 C 190.039062 98.144531 189.542969 98.148438 189.042969 98.199219 C 188.917969 98.210938 188.792969 98.222656 188.667969 98.230469 L 188.65625 98.230469 C 188.175781 98.265625 187.695312 98.300781 187.21875 98.375 L 187.132812 98.386719 C 186.871094 98.429688 186.605469 98.472656 186.34375 98.515625 L 186.230469 98.535156 C 185.828125 98.601562 185.4375 98.675781 185.046875 98.792969 C 184.894531 98.835938 184.742188 98.878906 184.589844 98.914062 C 184.359375 98.964844 184.132812 99.023438 183.910156 99.097656 C 183.820312 99.125 183.734375 99.152344 183.644531 99.175781 C 181.769531 99.683594 177.507812 101.785156 176.257812 104.476562 C 175.472656 106.179688 174.96875 108.113281 175.878906 109.894531 L 175.90625 109.945312 C 175.9375 110.007812 175.96875 110.074219 176.003906 110.136719 L 176.0625 110.136719 C 176.074219 110.234375 176.09375 110.316406 176.132812 110.410156 L 176.179688 110.515625 C 176.183594 110.53125 176.191406 110.542969 176.195312 110.558594 C 176.222656 110.632812 176.253906 110.707031 176.3125 110.765625 C 176.359375 110.8125 176.378906 110.851562 176.402344 110.914062 L 176.441406 111.011719 L 176.5 111.011719 C 176.523438 111.097656 176.523438 111.097656 176.558594 111.1875 L 176.648438 111.21875 C 176.648438 111.246094 176.648438 111.261719 176.652344 111.273438 C 176.65625 111.289062 176.664062 111.300781 176.683594 111.328125 C 176.730469 111.386719 176.777344 111.449219 176.820312 111.507812 C 176.875 111.605469 176.929688 111.679688 177.011719 111.757812 C 177.074219 111.816406 177.117188 111.867188 177.164062 111.941406 L 177.203125 112.007812 C 177.265625 112.054688 177.320312 112.09375 177.371094 112.15625 C 177.441406 112.253906 177.507812 112.34375 177.601562 112.421875 L 177.667969 112.472656 C 177.71875 112.523438 177.765625 112.570312 177.816406 112.621094 L 177.902344 112.648438 L 177.902344 112.707031 C 177.972656 112.789062 178.046875 112.855469 178.136719 112.910156 C 178.226562 112.921875 178.28125 112.90625 178.371094 112.882812 L 178.371094 112.824219 C 178.457031 112.824219 178.457031 112.824219 178.550781 112.796875 L 178.652344 112.765625 L 178.835938 112.707031 L 178.835938 112.648438 C 178.90625 112.652344 178.90625 112.652344 178.984375 112.648438 C 179.0625 112.597656 179.132812 112.5625 179.222656 112.53125 L 179.28125 112.507812 C 179.492188 112.429688 179.707031 112.359375 179.921875 112.292969 L 180.007812 112.269531 L 180.007812 112.210938 C 180.082031 112.210938 180.109375 112.210938 180.132812 112.203125 C 180.148438 112.203125 180.160156 112.195312 180.175781 112.191406 C 180.3125 112.121094 180.449219 112.070312 180.59375 112.023438 C 180.828125 111.949219 181.058594 111.859375 181.292969 111.773438 C 181.292969 111.683594 181.292969 111.683594 181.085938 111.480469 C 181.023438 111.417969 180.960938 111.355469 180.898438 111.289062 L 180.855469 111.238281 L 180.765625 111.136719 C 180.757812 111.132812 180.75 111.125 180.746094 111.117188 C 180.675781 111.039062 180.613281 110.964844 180.519531 110.914062 L 180.472656 110.894531 L 180.472656 110.808594 C 180.441406 110.773438 180.425781 110.761719 180.410156 110.75 C 180.394531 110.742188 180.378906 110.738281 180.351562 110.730469 L 180.296875 110.71875 C 180.296875 110.679688 180.296875 110.660156 180.292969 110.636719 C 180.285156 110.613281 180.273438 110.59375 180.238281 110.542969 L 180.179688 110.542969 C 180.179688 110.503906 180.179688 110.484375 180.175781 110.464844 C 180.167969 110.4375 180.152344 110.417969 180.121094 110.367188 C 179.886719 110.050781 179.675781 109.679688 179.5625 109.300781 C 179.535156 109.203125 179.507812 109.109375 179.472656 109.011719 C 179.222656 108.324219 179.183594 107.484375 179.34375 106.769531 L 179.363281 106.6875 C 179.429688 106.410156 179.5 106.136719 179.601562 105.867188 C 180.152344 104.457031 181.300781 103.089844 182.742188 102.507812 L 182.8125 102.480469 C 182.910156 102.371094 183.003906 102.324219 183.136719 102.265625 C 183.453125 102.140625 183.761719 101.992188 184.078125 101.84375 C 184.667969 101.566406 185.273438 101.28125 185.957031 101.109375 C 186.019531 101.09375 186.082031 101.078125 186.144531 101.0625 C 186.203125 101.046875 186.265625 101.03125 186.328125 101.015625 C 186.832031 100.882812 187.335938 100.75 187.851562 100.679688 C 187.90625 100.675781 187.957031 100.667969 188.011719 100.660156 C 189.019531 100.515625 190.011719 100.460938 191.027344 100.457031 L 191.136719 100.457031 C 195.109375 100.4375 200.542969 101.925781 202.496094 105.679688 L 202.53125 105.753906 C 202.582031 105.851562 202.632812 105.949219 202.675781 106.050781 C 203.035156 106.902344 203.175781 108.039062 202.835938 108.921875 C 202.621094 109.46875 202.359375 110.121094 201.859375 110.679688 C 201.359375 111.238281 200.757812 111.742188 200.101562 112.175781 L 200.0625 112.203125 C 199.558594 112.535156 199.0625 112.859375 198.410156 113.109375 L 198.351562 113.132812 L 198.234375 113.175781 C 198.121094 113.222656 198.003906 113.261719 197.882812 113.292969 L 197.769531 113.320312 C 197.058594 113.511719 196.246094 113.605469 195.519531 113.433594 L 195.429688 113.410156 C 195.351562 113.386719 195.277344 113.363281 195.203125 113.332031 L 195.109375 113.292969 C 195.035156 113.261719 194.960938 113.230469 194.886719 113.195312 L 194.804688 113.160156 C 194.796875 113.15625 194.785156 113.152344 194.777344 113.148438 C 194.652344 113.097656 194.546875 113.054688 194.457031 112.953125 C 194.410156 112.882812 194.410156 112.882812 194.347656 112.839844 C 194.261719 112.785156 194.191406 112.738281 194.140625 112.648438 C 194.074219 112.464844 194.050781 112.257812 194.113281 112.070312 C 194.128906 112.042969 194.136719 112.027344 194.140625 112.011719 C 194.148438 111.988281 194.152344 111.964844 194.164062 111.910156 L 194.175781 111.832031 C 194.394531 111.566406 194.679688 111.394531 194.929688 111.246094 C 195.003906 111.199219 195.074219 111.160156 195.136719 111.117188 L 195.207031 111.070312 C 196.820312 110.035156 197.492188 109.640625 198.324219 109.152344 C 198.800781 108.875 199.324219 108.566406 200.105469 108.089844 L 200.160156 108.074219 C 200.234375 108.058594 200.234375 108.058594 200.378906 107.976562 L 200.433594 107.941406 C 200.5 107.902344 200.566406 107.867188 200.632812 107.828125 L 200.601562 107.738281 L 200.542969 107.71875 L 200.484375 107.710938 L 200.484375 107.652344 L 200.339844 107.621094 L 200.339844 107.5625 L 200.25 107.503906 C 200.105469 107.40625 199.957031 107.308594 199.804688 107.21875 L 199.738281 107.175781 L 199.601562 107.09375 C 199.507812 107.035156 199.375 106.972656 199.234375 106.902344 C 198.898438 106.738281 198.496094 106.539062 198.375 106.332031 L 198.351562 106.277344 L 198.234375 106.277344 L 198.234375 106.21875 C 198.222656 106.214844 198.207031 106.210938 198.195312 106.207031 C 198.097656 106.179688 198.019531 106.15625 197.953125 106.070312 C 197.914062 105.984375 197.914062 105.984375 197.878906 105.929688 C 197.128906 104.832031 195.613281 103.570312 194.34375 103.289062 C 194.273438 103.273438 194.203125 103.257812 194.132812 103.242188 C 192.867188 102.953125 192.03125 102.765625 190.640625 102.761719 L 190.457031 102.761719 C 189.269531 102.753906 188.0625 102.875 186.945312 103.289062 C 186.890625 103.308594 186.835938 103.328125 186.78125 103.347656 C 186.761719 103.355469 186.738281 103.363281 186.714844 103.375 C 186.554688 103.429688 186.394531 103.488281 186.242188 103.566406 C 186.121094 103.628906 186 103.691406 185.878906 103.75 C 185.464844 103.957031 185.070312 104.15625 184.75 104.453125 C 184.714844 104.488281 184.683594 104.519531 184.652344 104.554688 L 184.5625 104.582031 L 184.535156 104.640625 C 184.445312 104.671875 184.417969 104.6875 184.359375 104.757812 C 184.355469 104.765625 184.351562 104.773438 184.351562 104.777344 C 184.324219 104.839844 184.308594 104.871094 184.242188 104.90625 L 184.183594 104.933594 L 184.125 105.023438 C 183.914062 105.234375 183.765625 105.417969 183.652344 105.695312 L 183.628906 105.753906 L 183.570312 105.753906 C 183.550781 105.8125 183.53125 105.871094 183.511719 105.929688 C 183.480469 105.976562 183.453125 106.023438 183.425781 106.074219 C 183.152344 106.773438 183.171875 107.613281 183.402344 108.320312 L 183.425781 108.382812 C 183.625 108.988281 183.992188 109.410156 184.445312 109.8125 C 184.523438 109.890625 184.589844 109.957031 184.679688 110.019531 C 184.769531 110.074219 184.769531 110.074219 184.84375 110.148438 C 185.648438 110.976562 187.195312 111.46875 188.386719 111.699219 L 188.472656 111.714844 L 188.574219 111.726562 L 188.679688 111.742188 C 189.21875 111.820312 189.757812 111.871094 190.304688 111.863281 L 190.40625 111.859375 C 190.398438 111.910156 190.386719 111.957031 190.378906 112.007812 C 190.285156 112.398438 190.296875 112.753906 190.449219 113.132812 C 191.003906 114.332031 192.8125 115.253906 194.035156 115.542969 L 194.046875 115.546875 C 194.144531 115.570312 194.234375 115.589844 194.328125 115.625 C 194.578125 115.730469 194.835938 115.765625 195.101562 115.800781 L 195.1875 115.8125 C 196.011719 115.921875 196.910156 115.976562 197.734375 115.835938 C 197.777344 115.828125 197.816406 115.820312 197.859375 115.8125 L 197.925781 115.800781 C 197.992188 115.789062 198.058594 115.777344 198.128906 115.765625 C 198.660156 115.683594 199.160156 115.539062 199.675781 115.371094 C 199.816406 115.328125 199.953125 115.28125 200.09375 115.238281 L 200.15625 115.21875 L 200.265625 115.183594 C 201.40625 114.832031 202.488281 114.03125 203.550781 113.242188 C 203.753906 113.09375 203.957031 112.941406 204.15625 112.796875 C 204.210938 112.757812 204.261719 112.71875 204.3125 112.679688 C 204.324219 112.632812 204.328125 112.609375 204.339844 112.589844 C 204.355469 112.574219 204.375 112.558594 204.414062 112.535156 C 205.191406 112.003906 205.84375 110.921875 206.214844 110.121094 C 206.296875 109.945312 206.363281 109.773438 206.417969 109.589844 C 206.433594 109.527344 206.453125 109.460938 206.476562 109.398438 C 206.800781 108.386719 206.84375 107.144531 206.472656 106.136719 C 206.4375 106.042969 206.402344 105.949219 206.378906 105.847656 L 206.355469 105.753906 L 206.296875 105.753906 C 206.296875 105.617188 206.296875 105.617188 206.035156 105.050781 L 205.976562 105.050781 C 205.976562 104.957031 205.957031 104.902344 205.917969 104.816406 L 205.859375 104.816406 C 205.667969 104.242188 205.042969 103.519531 204.546875 103.0625 L 204.488281 103.0625 C 204.488281 102.9375 204.222656 102.71875 204.027344 102.558594 C 203.96875 102.511719 203.917969 102.46875 203.882812 102.433594 L 203.832031 102.390625 C 203.777344 102.34375 203.726562 102.304688 203.664062 102.269531 C 201.765625 100.816406 200.949219 100.226562 198.953125 99.542969 L 198.875 99.515625 C 198.71875 99.460938 198.554688 99.402344 198.394531 99.34375 C 197.90625 99.164062 197.414062 98.984375 196.925781 98.921875 L 196.832031 98.914062 C 196.832031 98.894531 193.550781 98.152344 190.75 98.148438 Z M 193.085938 105.511719 L 192.976562 105.460938 C 191.945312 104.949219 190.203125 104.8125 189.113281 105.242188 C 189.019531 105.273438 188.96875 105.292969 188.921875 105.308594 C 188.871094 105.320312 188.820312 105.332031 188.722656 105.355469 L 188.652344 105.371094 L 188.652344 105.429688 L 188.417969 105.460938 L 188.417969 105.519531 C 188.371094 105.519531 188.347656 105.519531 188.328125 105.523438 C 188.3125 105.527344 188.296875 105.535156 188.269531 105.546875 L 188.203125 105.585938 L 188.132812 105.625 L 188.070312 105.664062 C 188.019531 105.691406 187.996094 105.703125 187.976562 105.71875 C 187.960938 105.726562 187.949219 105.734375 187.921875 105.753906 L 187.894531 105.839844 C 187.832031 105.839844 187.804688 105.839844 187.777344 105.847656 C 187.753906 105.855469 187.730469 105.871094 187.6875 105.898438 L 187.660156 105.984375 L 187.601562 105.984375 C 187.574219 106.011719 187.558594 106.023438 187.542969 106.039062 C 187.527344 106.054688 187.515625 106.070312 187.484375 106.101562 L 187.457031 106.191406 L 187.398438 106.21875 L 187.398438 106.277344 L 187.339844 106.277344 C 187.066406 106.574219 186.980469 106.910156 186.980469 107.300781 L 186.980469 107.394531 C 186.976562 107.640625 186.992188 107.828125 187.121094 108.046875 L 187.164062 108.121094 C 187.167969 108.128906 187.167969 108.136719 187.171875 108.140625 C 187.210938 108.242188 187.238281 108.3125 187.324219 108.382812 L 187.398438 108.441406 C 187.40625 108.453125 187.410156 108.460938 187.417969 108.472656 C 187.46875 108.550781 187.507812 108.613281 187.589844 108.664062 L 187.660156 108.703125 C 187.746094 108.832031 187.871094 108.886719 188.007812 108.945312 L 188.070312 108.96875 L 188.070312 109.023438 C 188.160156 109.074219 188.246094 109.113281 188.34375 109.148438 L 188.417969 109.171875 L 188.417969 109.230469 C 188.527344 109.265625 188.632812 109.304688 188.742188 109.347656 C 189.1875 109.535156 189.683594 109.6875 190.167969 109.699219 C 190.234375 109.699219 190.300781 109.699219 190.367188 109.699219 C 191.246094 109.722656 192.046875 109.570312 192.859375 109.230469 L 192.859375 109.171875 L 193.09375 109.113281 L 193.09375 109.054688 L 193.269531 109.023438 L 193.269531 108.96875 L 193.386719 108.9375 L 193.386719 108.878906 C 193.460938 108.867188 193.511719 108.84375 193.578125 108.804688 L 193.65625 108.75 C 193.699219 108.71875 193.71875 108.707031 193.738281 108.691406 C 193.753906 108.679688 193.769531 108.667969 193.796875 108.644531 L 193.796875 108.585938 L 193.910156 108.558594 L 193.910156 108.5 L 193.96875 108.5 L 193.96875 108.441406 L 194.023438 108.433594 C 194.050781 108.425781 194.070312 108.417969 194.089844 108.40625 C 194.117188 108.386719 194.140625 108.355469 194.203125 108.265625 C 194.234375 108.214844 194.261719 108.167969 194.292969 108.121094 C 194.320312 108.105469 194.335938 108.097656 194.355469 108.082031 C 194.394531 108.050781 194.417969 108 194.496094 107.828125 C 194.632812 107.441406 194.617188 107.0625 194.46875 106.6875 L 194.410156 106.6875 C 194.410156 106.5625 194.402344 106.539062 194.320312 106.453125 L 194.261719 106.453125 C 194.253906 106.371094 194.234375 106.335938 194.175781 106.273438 L 194.101562 106.210938 C 194.003906 106.125 193.902344 106.042969 193.796875 105.960938 C 193.757812 105.929688 193.71875 105.898438 193.679688 105.871094 C 193.621094 105.8125 193.59375 105.78125 193.515625 105.75 L 193.445312 105.722656 C 193.425781 105.707031 193.414062 105.691406 193.398438 105.679688 C 193.355469 105.644531 193.304688 105.617188 193.085938 105.511719 Z M 193.085938 105.511719 " fill-opacity="1" fill-rule="evenodd"/></svg>